<?xml version="1.0" encoding="UTF-8"?>
<!DOCTYPE svg PUBLIC "-//W3C//DTD SVG 1.1//EN" "http://www.w3.org/Graphics/SVG/1.1/DTD/svg11.dtd">
<svg xmlns="http://www.w3.org/2000/svg" version="1.1" width="160px" height="160px" style="shape-rendering:geometricPrecision; text-rendering:geometricPrecision; image-rendering:optimizeQuality; fill-rule:evenodd; clip-rule:evenodd" xmlns:xlink="http://www.w3.org/1999/xlink">
<g><path style="opacity:1" fill="#a499c0" d="M -0.5,-0.5 C 52.8333,-0.5 106.167,-0.5 159.5,-0.5C 159.5,52.8333 159.5,106.167 159.5,159.5C 106.167,159.5 52.8333,159.5 -0.5,159.5C -0.5,106.167 -0.5,52.8333 -0.5,-0.5 Z"/></g>
<g><path style="opacity:1" fill="#9d91e4" d="M 127.5,10.5 C 123.456,9.95788 119.789,10.7912 116.5,13C 110.867,19.4523 105.867,26.2856 101.5,33.5C 102.98,28.5748 105.48,24.2414 109,20.5C 109.497,18.1902 109.663,15.8568 109.5,13.5C 115.063,9.63332 121.063,8.63332 127.5,10.5 Z"/></g>
<g><path style="opacity:1" fill="#beb8ec" d="M 109.5,13.5 C 109.663,15.8568 109.497,18.1902 109,20.5C 105.48,24.2414 102.98,28.5748 101.5,33.5C 100.209,33.2627 99.209,33.596 98.5,34.5C 96.9991,33.2485 95.3325,32.2485 93.5,31.5C 92.8333,31.5 92.5,31.1667 92.5,30.5C 95.8333,22.5 101.5,16.8333 109.5,13.5 Z"/></g>
<g><path style="opacity:1" fill="#d4c5e5" d="M 38.5,18.5 C 39.4972,18.4701 40.1639,18.9701 40.5,20C 40.062,21.9203 39.3953,23.7536 38.5,25.5C 35.9617,23.2599 35.9617,20.9265 38.5,18.5 Z"/></g>
<g><path style="opacity:1" fill="#eeeff0" d="M 70.5,26.5 C 72.5273,26.3379 74.5273,26.5045 76.5,27C 75.8619,29.7804 74.3619,31.947 72,33.5C 71.7305,36.2241 71.2305,38.8908 70.5,41.5C 69.011,41.5331 67.6776,42.0331 66.5,43C 67.8045,43.804 68.4712,44.9707 68.5,46.5C 67.8631,49.1071 66.6965,51.4404 65,53.5C 63.3333,54.8333 61.6667,54.8333 60,53.5C 59.0536,55.7883 57.8869,57.955 56.5,60C 50.9992,59.4843 45.6658,60.4843 40.5,63C 36.8621,66.4996 33.8621,70.3329 31.5,74.5C 30.7664,77.6657 29.5998,80.6657 28,83.5C 26.3523,84.717 24.519,85.5503 22.5,86C 20.383,90.3033 17.0497,92.8033 12.5,93.5C 12.7845,91.5853 12.4511,89.9187 11.5,88.5C 10.7256,76.5487 15.3922,67.382 25.5,61C 34.8588,58.5738 42.6922,53.7405 49,46.5C 52.5202,35.8099 59.6869,29.1432 70.5,26.5 Z"/></g>
<g><path style="opacity:1" fill="#8374da" d="M 127.5,10.5 C 130.491,10.1663 132.824,11.1663 134.5,13.5C 127.906,12.7267 122.239,14.56 117.5,19C 114.697,23.8873 112.364,29.054 110.5,34.5C 108.475,36.5644 106.142,37.8977 103.5,38.5C 101.833,37.1667 100.167,35.8333 98.5,34.5C 99.209,33.596 100.209,33.2627 101.5,33.5C 105.867,26.2856 110.867,19.4523 116.5,13C 119.789,10.7912 123.456,9.95788 127.5,10.5 Z"/></g>
<g><path style="opacity:1" fill="#e4e5e5" d="M 70.5,26.5 C 78.2594,24.6708 85.5928,26.0041 92.5,30.5C 92.5,31.1667 92.8333,31.5 93.5,31.5C 92.8661,34.7763 93.1994,38.1096 94.5,41.5C 98.788,46.2913 103.788,50.1246 109.5,53C 111.112,53.7203 112.612,53.5536 114,52.5C 114.324,54.5689 115.158,54.9023 116.5,53.5C 123.188,54.6404 126.021,58.3071 125,64.5C 127.102,66.0948 128.602,68.0948 129.5,70.5C 126.234,70.3706 123.234,69.3706 120.5,67.5C 117.592,68.5784 115.092,70.245 113,72.5C 111,72.5 109,72.5 107,72.5C 104.966,70.5582 102.8,68.7248 100.5,67C 102.592,66.0475 102.925,64.7141 101.5,63C 102.516,61.3232 103.516,59.6565 104.5,58C 99.6343,53.1343 94.801,48.301 90,43.5C 88.3333,45.5 86.6667,47.5 85,49.5C 83.4706,55.3707 81.3039,60.5374 78.5,65C 74.0654,67.6459 69.3987,69.8126 64.5,71.5C 63.0944,70.3318 61.9277,70.6652 61,72.5C 58.0647,72.6075 55.0647,72.6075 52,72.5C 41.3935,76.4398 34.0601,83.7731 30,94.5C 30.8225,101.834 27.6558,106.167 20.5,107.5C 14.636,102.598 11.636,96.2651 11.5,88.5C 12.4511,89.9187 12.7845,91.5853 12.5,93.5C 17.0497,92.8033 20.383,90.3033 22.5,86C 24.519,85.5503 26.3523,84.717 28,83.5C 29.5998,80.6657 30.7664,77.6657 31.5,74.5C 33.8621,70.3329 36.8621,66.4996 40.5,63C 45.6658,60.4843 50.9992,59.4843 56.5,60C 57.8869,57.955 59.0536,55.7883 60,53.5C 61.6667,54.8333 63.3333,54.8333 65,53.5C 66.6965,51.4404 67.8631,49.1071 68.5,46.5C 68.4712,44.9707 67.8045,43.804 66.5,43C 67.6776,42.0331 69.011,41.5331 70.5,41.5C 71.2305,38.8908 71.7305,36.2241 72,33.5C 74.3619,31.947 75.8619,29.7804 76.5,27C 74.5273,26.5045 72.5273,26.3379 70.5,26.5 Z"/></g>
<g><path style="opacity:1" fill="#6758c7" d="M 134.5,13.5 C 133.286,16.9302 131.786,20.2635 130,23.5C 128.315,30.9369 130.149,37.2702 135.5,42.5C 134.545,44.7099 133.045,45.0432 131,43.5C 131.565,46.891 133.732,48.891 137.5,49.5C 140.833,49.5 144.167,49.5 147.5,49.5C 148.833,49.1667 150.167,48.8333 151.5,48.5C 151.53,49.4972 151.03,50.1639 150,50.5C 144.734,52.7521 139.234,53.9188 133.5,54C 131.574,54.4224 130.574,55.5891 130.5,57.5C 120.624,52.3967 111.624,46.0634 103.5,38.5C 106.142,37.8977 108.475,36.5644 110.5,34.5C 112.364,29.054 114.697,23.8873 117.5,19C 122.239,14.56 127.906,12.7267 134.5,13.5 Z"/></g>
<g><path style="opacity:1" fill="#cfc0e1" d="M 29.5,36.5 C 30.675,36.281 31.675,36.6143 32.5,37.5C 31.6906,39.0709 31.3573,40.7376 31.5,42.5C 33.9115,42.8633 35.4115,41.8633 36,39.5C 36.339,43.4874 34.5057,44.9874 30.5,44C 28.2854,41.7585 27.9521,39.2585 29.5,36.5 Z"/></g>
<g><path style="opacity:1" fill="#776acb" d="M 135.5,42.5 C 140.743,45.5336 146.41,47.2003 152.5,47.5C 153.782,48.9584 153.782,50.2918 152.5,51.5C 152.737,50.209 152.404,49.209 151.5,48.5C 150.167,48.8333 148.833,49.1667 147.5,49.5C 144.083,47.9334 140.417,47.4334 136.5,48C 137.056,48.3826 137.389,48.8826 137.5,49.5C 133.732,48.891 131.565,46.891 131,43.5C 133.045,45.0432 134.545,44.7099 135.5,42.5 Z"/></g>
<g><path style="opacity:1" fill="#dddfde" d="M 129.5,70.5 C 121.53,73.2062 113.363,75.8729 105,78.5C 101.24,77.8578 97.7404,76.5244 94.5,74.5C 93.2993,72.0905 91.6326,70.0905 89.5,68.5C 85.742,70.4612 82.242,72.7945 79,75.5C 78.6667,75.1667 78.3333,74.8333 78,74.5C 68.4284,76.7144 58.7618,78.381 49,79.5C 48.6667,79.1667 48.3333,78.8333 48,78.5C 38.1964,85.7677 32.1964,95.4343 30,107.5C 29.1237,109.635 27.6237,110.969 25.5,111.5C 23.2512,110.92 21.5846,109.587 20.5,107.5C 27.6558,106.167 30.8225,101.834 30,94.5C 34.0601,83.7731 41.3935,76.4398 52,72.5C 55.0647,72.6075 58.0647,72.6075 61,72.5C 61.9277,70.6652 63.0944,70.3318 64.5,71.5C 69.3987,69.8126 74.0654,67.6459 78.5,65C 81.3039,60.5374 83.4706,55.3707 85,49.5C 86.6667,47.5 88.3333,45.5 90,43.5C 94.801,48.301 99.6343,53.1343 104.5,58C 103.516,59.6565 102.516,61.3232 101.5,63C 102.925,64.7141 102.592,66.0475 100.5,67C 102.8,68.7248 104.966,70.5582 107,72.5C 109,72.5 111,72.5 113,72.5C 115.092,70.245 117.592,68.5784 120.5,67.5C 123.234,69.3706 126.234,70.3706 129.5,70.5 Z"/></g>
<g><path style="opacity:1" fill="#8e84d1" d="M 147.5,49.5 C 144.167,49.5 140.833,49.5 137.5,49.5C 137.389,48.8826 137.056,48.3826 136.5,48C 140.417,47.4334 144.083,47.9334 147.5,49.5 Z"/></g>
<g><path style="opacity:1" fill="#5143b2" d="M 151.5,48.5 C 152.404,49.209 152.737,50.209 152.5,51.5C 151.126,58.8654 147.126,64.1987 140.5,67.5C 140.167,66.5 139.5,65.8333 138.5,65.5C 136.167,62.5 133.5,59.8333 130.5,57.5C 130.574,55.5891 131.574,54.4224 133.5,54C 139.234,53.9188 144.734,52.7521 150,50.5C 151.03,50.1639 151.53,49.4972 151.5,48.5 Z"/></g>
<g><path style="opacity:1" fill="#d7d9da" d="M 93.5,31.5 C 95.3325,32.2485 96.9991,33.2485 98.5,34.5C 100.167,35.8333 101.833,37.1667 103.5,38.5C 111.624,46.0634 120.624,52.3967 130.5,57.5C 133.5,59.8333 136.167,62.5 138.5,65.5C 139.218,67.1368 139.384,68.8034 139,70.5C 124.786,83.9596 107.953,89.2929 88.5,86.5C 86.4008,83.0741 83.4008,80.7407 79.5,79.5C 78.5836,79.5427 77.9169,79.8761 77.5,80.5C 71.3664,81.2418 65.1998,81.9085 59,82.5C 53.5518,81.8172 48.3851,82.9838 43.5,86C 40.9557,87.5626 40.9557,89.0626 43.5,90.5C 41.1397,93.3603 38.973,96.3603 37,99.5C 36.6988,102.98 35.8655,106.313 34.5,109.5C 33.2341,111.404 31.5675,112.737 29.5,113.5C 27.847,113.34 26.5137,112.674 25.5,111.5C 27.6237,110.969 29.1237,109.635 30,107.5C 32.1964,95.4343 38.1964,85.7677 48,78.5C 48.3333,78.8333 48.6667,79.1667 49,79.5C 58.7618,78.381 68.4284,76.7144 78,74.5C 78.3333,74.8333 78.6667,75.1667 79,75.5C 82.242,72.7945 85.742,70.4612 89.5,68.5C 91.6326,70.0905 93.2993,72.0905 94.5,74.5C 97.7404,76.5244 101.24,77.8578 105,78.5C 113.363,75.8729 121.53,73.2062 129.5,70.5C 128.602,68.0948 127.102,66.0948 125,64.5C 126.021,58.3071 123.188,54.6404 116.5,53.5C 115.158,54.9023 114.324,54.5689 114,52.5C 112.612,53.5536 111.112,53.7203 109.5,53C 103.788,50.1246 98.788,46.2913 94.5,41.5C 93.1994,38.1096 92.8661,34.7763 93.5,31.5 Z"/></g>
<g><path style="opacity:1" fill="#cacfd0" d="M 77.5,80.5 C 77.7852,82.288 77.4519,83.9547 76.5,85.5C 75.0762,82.8937 73.7429,82.8937 72.5,85.5C 70.457,86.5794 69.1237,88.246 68.5,90.5C 66.5229,91.1495 64.6895,91.1495 63,90.5C 57.8142,92.1324 52.6475,93.6324 47.5,95C 45.6652,95.9277 45.3318,97.0944 46.5,98.5C 44.8164,99.8544 44.3164,101.521 45,103.5C 47.9386,104.128 50.7719,104.795 53.5,105.5C 55.0916,108.454 54.4249,109.454 51.5,108.5C 50.1451,109.188 49.1451,110.188 48.5,111.5C 47.0256,112.436 46.0256,113.77 45.5,115.5C 45.6716,116.492 45.3382,117.158 44.5,117.5C 39.0689,117.328 34.0689,115.995 29.5,113.5C 31.5675,112.737 33.2341,111.404 34.5,109.5C 35.8655,106.313 36.6988,102.98 37,99.5C 38.973,96.3603 41.1397,93.3603 43.5,90.5C 40.9557,89.0626 40.9557,87.5626 43.5,86C 48.3851,82.9838 53.5518,81.8172 59,82.5C 65.1998,81.9085 71.3664,81.2418 77.5,80.5 Z"/></g>
<g><path style="opacity:1" fill="#1d93c4" d="M 88.5,86.5 C 91.3245,90.2887 91.9912,94.2887 90.5,98.5C 89.2918,97.218 87.9584,97.218 86.5,98.5C 84.3484,104.362 80.3484,106.028 74.5,103.5C 74.3059,99.9952 73.3059,99.6618 71.5,102.5C 67.5623,99.3157 66.5623,95.3157 68.5,90.5C 69.4511,91.9187 69.7845,93.5853 69.5,95.5C 70.8333,95.5 72.1667,95.5 73.5,95.5C 73.5111,93.4534 73.8444,91.4534 74.5,89.5C 74.2483,87.9271 73.5817,86.5938 72.5,85.5C 73.7429,82.8937 75.0762,82.8937 76.5,85.5C 77.4519,83.9547 77.7852,82.288 77.5,80.5C 77.9169,79.8761 78.5836,79.5427 79.5,79.5C 83.4008,80.7407 86.4008,83.0741 88.5,86.5 Z"/></g>
<g><path style="opacity:1" fill="#c6cbcc" d="M 138.5,65.5 C 139.5,65.8333 140.167,66.5 140.5,67.5C 142.025,69.2163 143.025,71.2163 143.5,73.5C 143.824,76.694 142.658,77.694 140,76.5C 135.252,79.9272 130.085,82.4272 124.5,84C 121.044,87.9041 116.711,90.5708 111.5,92C 110.833,92.6667 110.167,93.3333 109.5,94C 110.833,95 110.833,96 109.5,97C 107.5,97.3333 105.5,97.6667 103.5,98C 101.983,100.761 102.816,102.594 106,103.5C 106.667,104.167 106.667,104.833 106,105.5C 104.758,104.128 103.258,103.128 101.5,102.5C 100.702,102.957 100.369,103.624 100.5,104.5C 99.209,104.263 98.209,104.596 97.5,105.5C 93.5216,107.478 90.5216,110.478 88.5,114.5C 81.8333,115.167 75.1667,115.833 68.5,116.5C 66.1992,113.19 63.8658,109.857 61.5,106.5C 65.6748,106.691 70.0081,106.357 74.5,105.5C 79.0236,106.97 83.3569,106.47 87.5,104C 89.16,102.512 90.16,100.679 90.5,98.5C 91.9912,94.2887 91.3245,90.2887 88.5,86.5C 107.953,89.2929 124.786,83.9596 139,70.5C 139.384,68.8034 139.218,67.1368 138.5,65.5 Z"/></g>
<g><path style="opacity:1" fill="#94c3d6" d="M 72.5,85.5 C 73.5817,86.5938 74.2483,87.9271 74.5,89.5C 73.8444,91.4534 73.5111,93.4534 73.5,95.5C 72.1667,95.5 70.8333,95.5 69.5,95.5C 69.7845,93.5853 69.4511,91.9187 68.5,90.5C 69.1237,88.246 70.457,86.5794 72.5,85.5 Z"/></g>
<g><path style="opacity:1" fill="#bec0c1" d="M 143.5,73.5 C 147.446,81.0436 147.446,88.7102 143.5,96.5C 136.029,86.4196 128.362,86.5862 120.5,97C 117.215,97.7589 114.215,99.0922 111.5,101C 112.634,102.016 112.301,102.683 110.5,103C 118.505,104.168 126.505,105.335 134.5,106.5C 127.129,111.84 118.796,114.174 109.5,113.5C 106.86,110.194 103.86,107.194 100.5,104.5C 100.369,103.624 100.702,102.957 101.5,102.5C 103.258,103.128 104.758,104.128 106,105.5C 106.667,104.833 106.667,104.167 106,103.5C 102.816,102.594 101.983,100.761 103.5,98C 105.5,97.6667 107.5,97.3333 109.5,97C 110.833,96 110.833,95 109.5,94C 110.167,93.3333 110.833,92.6667 111.5,92C 116.711,90.5708 121.044,87.9041 124.5,84C 130.085,82.4272 135.252,79.9272 140,76.5C 142.658,77.694 143.824,76.694 143.5,73.5 Z"/></g>
<g><path style="opacity:1" fill="#b4b5b5" d="M 143.5,96.5 C 141.867,101.122 138.867,104.455 134.5,106.5C 126.505,105.335 118.505,104.168 110.5,103C 112.301,102.683 112.634,102.016 111.5,101C 114.215,99.0922 117.215,97.7589 120.5,97C 128.362,86.5862 136.029,86.4196 143.5,96.5 Z"/></g>
<g><path style="opacity:1" fill="#b3bbbf" d="M 68.5,90.5 C 66.5623,95.3157 67.5623,99.3157 71.5,102.5C 72.3065,103.728 73.3065,104.728 74.5,105.5C 70.0081,106.357 65.6748,106.691 61.5,106.5C 59.7028,105.27 57.7028,104.604 55.5,104.5C 54.8333,104.833 54.1667,105.167 53.5,105.5C 50.7719,104.795 47.9386,104.128 45,103.5C 44.3164,101.521 44.8164,99.8544 46.5,98.5C 45.3318,97.0944 45.6652,95.9277 47.5,95C 52.6475,93.6324 57.8142,92.1324 63,90.5C 64.6895,91.1495 66.5229,91.1495 68.5,90.5 Z"/></g>
<g><path style="opacity:1" fill="#2cb1d5" d="M 90.5,98.5 C 90.16,100.679 89.16,102.512 87.5,104C 83.3569,106.47 79.0236,106.97 74.5,105.5C 73.3065,104.728 72.3065,103.728 71.5,102.5C 73.3059,99.6618 74.3059,99.9952 74.5,103.5C 80.3484,106.028 84.3484,104.362 86.5,98.5C 87.9584,97.218 89.2918,97.218 90.5,98.5 Z"/></g>
<g><path style="opacity:1" fill="#2782ae" d="M 100.5,104.5 C 103.86,107.194 106.86,110.194 109.5,113.5C 110.715,117.301 110.715,120.967 109.5,124.5C 109.5,123.833 109.5,123.167 109.5,122.5C 108.521,114.547 104.521,108.881 97.5,105.5C 98.209,104.596 99.209,104.263 100.5,104.5 Z"/></g>
<g><path style="opacity:1" fill="#23a0ce" d="M 97.5,105.5 C 104.521,108.881 108.521,114.547 109.5,122.5C 108.082,124.187 106.749,126.02 105.5,128C 105.728,128.399 106.062,128.565 106.5,128.5C 99.086,133.345 92.9194,132.012 88,124.5C 87.2534,121.076 87.42,117.743 88.5,114.5C 90.5216,110.478 93.5216,107.478 97.5,105.5 Z"/></g>
<g><path style="opacity:1" fill="#1dadd6" d="M 55.5,104.5 C 59.3062,107.014 62.4729,110.347 65,114.5C 66.2525,117.014 66.7525,119.68 66.5,122.5C 62.3705,123.713 61.7039,125.713 64.5,128.5C 58.2415,132.957 52.5748,132.291 47.5,126.5C 47.3259,124.139 46.9926,121.806 46.5,119.5C 47.7079,120.234 49.0413,120.567 50.5,120.5C 51.0081,117.824 51.1747,115.157 51,112.5C 50.3292,111.748 49.4959,111.414 48.5,111.5C 49.1451,110.188 50.1451,109.188 51.5,108.5C 54.4249,109.454 55.0916,108.454 53.5,105.5C 54.1667,105.167 54.8333,104.833 55.5,104.5 Z"/></g>
<g><path style="opacity:1" fill="#8fc7dd" d="M 92.5,112.5 C 93.4972,112.47 94.1639,112.97 94.5,114C 93.3906,116.047 92.7239,118.213 92.5,120.5C 91.5,120.5 90.5,120.5 89.5,120.5C 89.144,117.224 90.144,114.557 92.5,112.5 Z"/></g>
<g><path style="opacity:1" fill="#8fcade" d="M 48.5,111.5 C 49.4959,111.414 50.3292,111.748 51,112.5C 51.1747,115.157 51.0081,117.824 50.5,120.5C 49.0413,120.567 47.7079,120.234 46.5,119.5C 46.7678,117.901 46.4345,116.568 45.5,115.5C 46.0256,113.77 47.0256,112.436 48.5,111.5 Z"/></g>
<g><path style="opacity:1" fill="#2883b2" d="M 55.5,104.5 C 57.7028,104.604 59.7028,105.27 61.5,106.5C 63.8658,109.857 66.1992,113.19 68.5,116.5C 68.8016,119.059 68.4682,121.393 67.5,123.5C 67.5,122.833 67.1667,122.5 66.5,122.5C 66.7525,119.68 66.2525,117.014 65,114.5C 62.4729,110.347 59.3062,107.014 55.5,104.5 Z"/></g>
<g><path style="opacity:1" fill="#3487b0" d="M 45.5,115.5 C 46.4345,116.568 46.7678,117.901 46.5,119.5C 46.9926,121.806 47.3259,124.139 47.5,126.5C 44.925,124.155 43.925,121.155 44.5,117.5C 45.3382,117.158 45.6716,116.492 45.5,115.5 Z"/></g>
<g><path style="opacity:1" fill="#2cdaed" d="M 66.5,122.5 C 67.1667,122.5 67.5,122.833 67.5,123.5C 67.2503,125.674 66.2503,127.341 64.5,128.5C 61.7039,125.713 62.3705,123.713 66.5,122.5 Z"/></g>
<g><path style="opacity:1" fill="#37e5f3" d="M 109.5,122.5 C 109.5,123.167 109.5,123.833 109.5,124.5C 109.262,126.404 108.262,127.738 106.5,128.5C 106.062,128.565 105.728,128.399 105.5,128C 106.749,126.02 108.082,124.187 109.5,122.5 Z"/></g>
</svg>
