<?xml version="1.0" encoding="UTF-8"?>
<!DOCTYPE svg PUBLIC "-//W3C//DTD SVG 1.1//EN" "http://www.w3.org/Graphics/SVG/1.1/DTD/svg11.dtd">
<svg xmlns="http://www.w3.org/2000/svg" version="1.1" width="160px" height="160px" style="shape-rendering:geometricPrecision; text-rendering:geometricPrecision; image-rendering:optimizeQuality; fill-rule:evenodd; clip-rule:evenodd" xmlns:xlink="http://www.w3.org/1999/xlink">
<g><path style="opacity:0.506" fill="#dcb047" d="M 30.5,9.5 C 35.7083,9.36903 37.3749,11.7024 35.5,16.5C 28.7892,17.7881 27.1225,15.4548 30.5,9.5 Z"/></g>
<g><path style="opacity:0.871" fill="#d9ae45" d="M 59.5,10.5 C 64.7497,10.2357 66.4163,12.569 64.5,17.5C 60.9336,19.3591 58.6002,18.3591 57.5,14.5C 58.1799,13.1401 58.8466,11.8068 59.5,10.5 Z"/></g>
<g><path style="opacity:0.992" fill="#dfb75f" d="M 69.5,31.5 C 69.5,32.1667 69.1667,32.5 68.5,32.5C 65.4252,28.6277 61.4252,26.2943 56.5,25.5C 55.7375,24.7321 54.7375,24.2321 53.5,24C 49.8484,23.5014 46.1817,23.3347 42.5,23.5C 41.1667,23.5 39.8333,23.5 38.5,23.5C 50.3506,19.7134 60.684,22.3801 69.5,31.5 Z"/></g>
<g><path style="opacity:0.982" fill="#f0f1f0" d="M 76.5,29.5 C 77.9516,30.3019 79.6183,30.8019 81.5,31C 78.484,35.8649 76.1506,41.0315 74.5,46.5C 73.3493,47.731 72.1827,47.731 71,46.5C 67.5618,50.33 66.2284,54.6634 67,59.5C 64.8269,61.8298 62.3269,62.1632 59.5,60.5C 53.7458,61.9187 48.4125,63.5854 43.5,65.5C 39.9685,68.1154 38.6352,71.4488 39.5,75.5C 36.296,79.6604 34.1294,84.327 33,89.5C 30.595,90.2744 28.095,90.7744 25.5,91C 23.2176,93.4577 20.8843,95.6244 18.5,97.5C 15.65,86.6913 17.9834,77.0247 25.5,68.5C 27.0269,68.573 28.0269,67.9063 28.5,66.5C 34.9883,63.0905 41.655,59.9238 48.5,57C 54.2796,51.2643 58.9463,44.7643 62.5,37.5C 64.5398,35.823 66.5398,34.1563 68.5,32.5C 69.1667,32.5 69.5,32.1667 69.5,31.5C 71.8333,30.8333 74.1667,30.1667 76.5,29.5 Z"/></g>
<g><path style="opacity:0.99" fill="#e9ebea" d="M 90.5,30.5 C 89.5,30.5 88.5,30.5 87.5,30.5C 87.6602,32.1992 87.4935,33.8659 87,35.5C 83.7731,43.1798 80.9398,51.0132 78.5,59C 78.8333,59.3333 79.1667,59.6667 79.5,60C 77.3063,62.1937 75.1396,64.3604 73,66.5C 72,66.1667 71,65.8333 70,65.5C 67.0556,67.7712 63.7223,69.1045 60,69.5C 56.2625,67.6213 52.4291,67.788 48.5,70C 42.3047,80.2178 35.9713,90.3845 29.5,100.5C 27.3577,102.905 24.691,104.238 21.5,104.5C 19.7073,102.574 18.7073,100.241 18.5,97.5C 20.8843,95.6244 23.2176,93.4577 25.5,91C 28.095,90.7744 30.595,90.2744 33,89.5C 34.1294,84.327 36.296,79.6604 39.5,75.5C 38.6352,71.4488 39.9685,68.1154 43.5,65.5C 48.4125,63.5854 53.7458,61.9187 59.5,60.5C 62.3269,62.1632 64.8269,61.8298 67,59.5C 66.2284,54.6634 67.5618,50.33 71,46.5C 72.1827,47.731 73.3493,47.731 74.5,46.5C 76.1506,41.0315 78.484,35.8649 81.5,31C 79.6183,30.8019 77.9516,30.3019 76.5,29.5C 81.3753,28.2345 86.0419,28.5678 90.5,30.5 Z"/></g>
<g><path style="opacity:0.988" fill="#dfe1e1" d="M 90.5,30.5 C 94.0525,31.2759 97.3858,32.6092 100.5,34.5C 99.9094,35.1515 99.2427,35.8182 98.5,36.5C 98.8812,38.7407 99.0479,41.074 99,43.5C 103.932,48.7225 108.766,54.0558 113.5,59.5C 113.167,59.8333 112.833,60.1667 112.5,60.5C 110.925,59.5435 109.258,58.8769 107.5,58.5C 105.276,54.4124 101.943,52.2457 97.5,52C 94.6116,59.066 92.1116,66.2327 90,73.5C 88.2395,76.4274 85.7395,78.4274 82.5,79.5C 72.9837,79.4771 63.4837,79.4771 54,79.5C 45.899,86.941 40.2323,95.941 37,106.5C 34.5712,109.102 32.0712,111.435 29.5,113.5C 25.681,111.531 23.0143,108.531 21.5,104.5C 24.691,104.238 27.3577,102.905 29.5,100.5C 35.9713,90.3845 42.3047,80.2178 48.5,70C 52.4291,67.788 56.2625,67.6213 60,69.5C 63.7223,69.1045 67.0556,67.7712 70,65.5C 71,65.8333 72,66.1667 73,66.5C 75.1396,64.3604 77.3063,62.1937 79.5,60C 79.1667,59.6667 78.8333,59.3333 78.5,59C 80.9398,51.0132 83.7731,43.1798 87,35.5C 87.4935,33.8659 87.6602,32.1992 87.5,30.5C 88.5,30.5 89.5,30.5 90.5,30.5 Z"/></g>
<g><path style="opacity:1" fill="#dcaf27" d="M 56.5,25.5 C 61.4252,26.2943 65.4252,28.6277 68.5,32.5C 66.5398,34.1563 64.5398,35.823 62.5,37.5C 60.6597,35.3311 58.3263,33.9977 55.5,33.5C 55.3433,34.8734 55.51,36.2068 56,37.5C 59.1691,39.6194 59.1691,41.6194 56,43.5C 55.51,44.7932 55.3433,46.1266 55.5,47.5C 51.8765,46.5207 49.0432,47.8541 47,51.5C 45.3035,49.4404 44.1369,47.1071 43.5,44.5C 46.5928,38.6466 49.4261,32.6466 52,26.5C 53.3561,25.6198 54.8561,25.2865 56.5,25.5 Z"/></g>
<g><path style="opacity:0.937" fill="#deae43" d="M 9.5,29.5 C 15.0204,30.0435 16.3538,32.5435 13.5,37C 7.20156,37.4954 5.86823,34.9954 9.5,29.5 Z"/></g>
<g><path style="opacity:1" fill="#ecd57d" d="M 38.5,34.5 C 39.3007,36.0418 39.634,37.7085 39.5,39.5C 36.4465,38.6789 33.4465,38.6789 30.5,39.5C 35.4234,41.7003 36.7567,45.367 34.5,50.5C 31.2877,51.2296 28.2877,51.2296 25.5,50.5C 24.0213,46.6176 24.3547,42.7842 26.5,39C 27.448,38.5172 28.448,38.3505 29.5,38.5C 29.7967,31.0108 32.7967,29.6775 38.5,34.5 Z"/></g>
<g><path style="opacity:1" fill="#edd460" d="M 38.5,23.5 C 39.8333,23.5 41.1667,23.5 42.5,23.5C 41.713,25.1042 40.3797,25.7709 38.5,25.5C 38.108,28.6757 38.108,31.6757 38.5,34.5C 32.7967,29.6775 29.7967,31.0108 29.5,38.5C 28.448,38.3505 27.448,38.5172 26.5,39C 24.3547,42.7842 24.0213,46.6176 25.5,50.5C 25.44,51.0431 25.1067,51.3764 24.5,51.5C 23.5726,49.8872 22.7393,48.2205 22,46.5C 21.3333,50.1667 21.3333,53.8333 22,57.5C 24.6661,60.1761 26.8327,63.1761 28.5,66.5C 28.0269,67.9063 27.0269,68.573 25.5,68.5C 16.097,53.2834 17.7636,39.45 30.5,27C 32.8175,25.0073 35.4842,23.8406 38.5,23.5 Z"/></g>
<g><path style="opacity:1" fill="#e4c139" d="M 42.5,23.5 C 46.1817,23.3347 49.8484,23.5014 53.5,24C 54.7375,24.2321 55.7375,24.7321 56.5,25.5C 54.8561,25.2865 53.3561,25.6198 52,26.5C 49.4261,32.6466 46.5928,38.6466 43.5,44.5C 44.1369,47.1071 45.3035,49.4404 47,51.5C 49.0432,47.8541 51.8765,46.5207 55.5,47.5C 55.3433,46.1266 55.51,44.7932 56,43.5C 59.1691,41.6194 59.1691,39.6194 56,37.5C 55.51,36.2068 55.3433,34.8734 55.5,33.5C 58.3263,33.9977 60.6597,35.3311 62.5,37.5C 58.9463,44.7643 54.2796,51.2643 48.5,57C 41.655,59.9238 34.9883,63.0905 28.5,66.5C 26.8327,63.1761 24.6661,60.1761 22,57.5C 21.3333,53.8333 21.3333,50.1667 22,46.5C 22.7393,48.2205 23.5726,49.8872 24.5,51.5C 25.1067,51.3764 25.44,51.0431 25.5,50.5C 28.2877,51.2296 31.2877,51.2296 34.5,50.5C 36.7567,45.367 35.4234,41.7003 30.5,39.5C 33.4465,38.6789 36.4465,38.6789 39.5,39.5C 39.634,37.7085 39.3007,36.0418 38.5,34.5C 38.108,31.6757 38.108,28.6757 38.5,25.5C 40.3797,25.7709 41.713,25.1042 42.5,23.5 Z"/></g>
<g><path style="opacity:1" fill="#d5d8d8" d="M 107.5,58.5 C 106.929,59.9733 106.929,61.64 107.5,63.5C 106.178,63.33 105.011,63.6634 104,64.5C 101.688,68.5951 99.8545,72.9285 98.5,77.5C 99.9023,78.8425 99.5689,79.6758 97.5,80C 99,80.8333 100.167,82 101,83.5C 102.604,82.3507 104.27,82.3507 106,83.5C 112.573,82.2604 118.74,78.7604 124.5,73C 127.917,72.9748 131.25,72.8082 134.5,72.5C 132.556,70.72 131.223,68.5533 130.5,66C 131.73,63.8523 132.73,61.6856 133.5,59.5C 138.719,62.0464 143.052,65.7131 146.5,70.5C 144.281,70.6921 141.948,71.5254 139.5,73C 133.702,78.1812 128.036,83.3478 122.5,88.5C 119.99,88.0535 117.99,88.7202 116.5,90.5C 113.703,92.795 111.036,95.295 108.5,98C 104.604,100.151 100.604,100.651 96.5,99.5C 99.7208,92.6474 97.3875,89.3141 89.5,89.5C 84.5032,93.6639 80.0032,98.3306 76,103.5C 75.3109,102.643 74.4776,101.977 73.5,101.5C 71.2534,102.374 68.9201,102.708 66.5,102.5C 66.5507,96.0394 63.5507,93.706 57.5,95.5C 51.8424,101.458 46.1757,107.458 40.5,113.5C 38.2729,114.401 37.2729,116.067 37.5,118.5C 34.4604,117.32 31.7937,115.653 29.5,113.5C 32.0712,111.435 34.5712,109.102 37,106.5C 40.2323,95.941 45.899,86.941 54,79.5C 63.4837,79.4771 72.9837,79.4771 82.5,79.5C 85.7395,78.4274 88.2395,76.4274 90,73.5C 92.1116,66.2327 94.6116,59.066 97.5,52C 101.943,52.2457 105.276,54.4124 107.5,58.5 Z"/></g>
<g><path style="opacity:0.994" fill="#dbdddc" d="M 100.5,34.5 C 106.546,38.0375 111.88,42.5375 116.5,48C 122.232,51.8564 127.899,55.6897 133.5,59.5C 132.73,61.6856 131.73,63.8523 130.5,66C 131.223,68.5533 132.556,70.72 134.5,72.5C 131.25,72.8082 127.917,72.9748 124.5,73C 118.74,78.7604 112.573,82.2604 106,83.5C 104.27,82.3507 102.604,82.3507 101,83.5C 100.167,82 99,80.8333 97.5,80C 99.5689,79.6758 99.9023,78.8425 98.5,77.5C 99.8545,72.9285 101.688,68.5951 104,64.5C 105.011,63.6634 106.178,63.33 107.5,63.5C 106.929,61.64 106.929,59.9733 107.5,58.5C 109.258,58.8769 110.925,59.5435 112.5,60.5C 112.833,60.1667 113.167,59.8333 113.5,59.5C 108.766,54.0558 103.932,48.7225 99,43.5C 99.0479,41.074 98.8812,38.7407 98.5,36.5C 99.2427,35.8182 99.9094,35.1515 100.5,34.5 Z"/></g>
<g><path style="opacity:1" fill="#daad41" d="M 8.5,58.5 C 13.9836,58.4809 15.6503,60.9809 13.5,66C 7.20577,66.5776 5.5391,64.0776 8.5,58.5 Z"/></g>
<g><path style="opacity:1" fill="#32bbdd" d="M 89.5,89.5 C 97.3875,89.3141 99.7208,92.6474 96.5,99.5C 93.7279,102.694 90.7279,105.694 87.5,108.5C 87.5,107.167 87.5,105.833 87.5,104.5C 90.5553,101.448 93.2219,98.1149 95.5,94.5C 95.1667,92.8333 94.1667,91.8333 92.5,91.5C 87.8123,96.8544 82.8123,101.854 77.5,106.5C 77.5,105.833 77.5,105.167 77.5,104.5C 81.7978,100.704 85.9644,96.7036 90,92.5C 90.4696,91.4232 90.3029,90.4232 89.5,89.5 Z"/></g>
<g><path style="opacity:0.986" fill="#bcbebe" d="M 146.5,70.5 C 157.215,90.7375 152.215,105.738 131.5,115.5C 129.236,114.781 126.903,114.448 124.5,114.5C 125.303,113.577 125.47,112.577 125,111.5C 122.597,110.219 120.763,108.386 119.5,106C 120.252,105.329 120.586,104.496 120.5,103.5C 123.114,101.06 125.114,98.2268 126.5,95C 126.278,92.0379 124.944,89.8712 122.5,88.5C 128.036,83.3478 133.702,78.1812 139.5,73C 141.948,71.5254 144.281,70.6921 146.5,70.5 Z"/></g>
<g><path style="opacity:1" fill="#2bb0d5" d="M 122.5,88.5 C 124.944,89.8712 126.278,92.0379 126.5,95C 125.114,98.2268 123.114,101.06 120.5,103.5C 116.719,106.912 113.052,110.412 109.5,114C 103.818,114.648 100.984,112.148 101,106.5C 101.915,105.672 102.581,104.672 103,103.5C 107.444,100.992 107.611,101.492 103.5,105C 104.167,105.667 104.833,105.667 105.5,105C 109.957,100.554 114.291,96.0539 118.5,91.5C 118.043,90.7025 117.376,90.3691 116.5,90.5C 117.99,88.7202 119.99,88.0535 122.5,88.5 Z"/></g>
<g><path style="opacity:1" fill="#a5d2e3" d="M 57.5,95.5 C 58.1667,96.1667 58.8333,96.8333 59.5,97.5C 53.1667,103.167 47.1667,109.167 41.5,115.5C 40.6618,115.158 40.3284,114.492 40.5,113.5C 46.1757,107.458 51.8424,101.458 57.5,95.5 Z"/></g>
<g><path style="opacity:1" fill="#0b6bc9" d="M 119.5,91.5 C 123.225,91.7796 124.392,93.7796 123,97.5C 117.866,101.633 113.032,106.133 108.5,111C 105.333,111.833 104.167,110.667 105,107.5C 110.432,102.575 115.265,97.2416 119.5,91.5 Z"/></g>
<g><path style="opacity:0.98" fill="#c2c6c6" d="M 89.5,89.5 C 90.3029,90.4232 90.4696,91.4232 90,92.5C 85.9644,96.7036 81.7978,100.704 77.5,104.5C 76.5,104.5 75.5,104.5 74.5,104.5C 73.8277,111.329 76.8277,114.163 83.5,113C 85.0414,111.629 86.3747,110.129 87.5,108.5C 90.7279,105.694 93.7279,102.694 96.5,99.5C 100.604,100.651 104.604,100.151 108.5,98C 111.036,95.295 113.703,92.795 116.5,90.5C 117.376,90.3691 118.043,90.7025 118.5,91.5C 114.291,96.0539 109.957,100.554 105.5,105C 104.833,105.667 104.167,105.667 103.5,105C 107.611,101.492 107.444,100.992 103,103.5C 102.581,104.672 101.915,105.672 101,106.5C 100.984,112.148 103.818,114.648 109.5,114C 113.052,110.412 116.719,106.912 120.5,103.5C 120.586,104.496 120.252,105.329 119.5,106C 120.763,108.386 122.597,110.219 125,111.5C 125.47,112.577 125.303,113.577 124.5,114.5C 122.5,115.5 120.5,116.5 118.5,117.5C 110.133,117.295 101.8,117.629 93.5,118.5C 90.7705,117.47 88.1038,117.47 85.5,118.5C 84.8333,118.833 84.1667,119.167 83.5,119.5C 72.5145,120.209 61.5145,120.543 50.5,120.5C 56.2046,114.797 61.5379,108.797 66.5,102.5C 68.9201,102.708 71.2534,102.374 73.5,101.5C 74.4776,101.977 75.3109,102.643 76,103.5C 80.0032,98.3306 84.5032,93.6639 89.5,89.5 Z"/></g>
<g><path style="opacity:1" fill="#2f9ecb" d="M 77.5,104.5 C 77.5,105.167 77.5,105.833 77.5,106.5C 77.147,108.635 77.9803,109.968 80,110.5C 82.6522,108.68 85.1522,106.68 87.5,104.5C 87.5,105.833 87.5,107.167 87.5,108.5C 86.3747,110.129 85.0414,111.629 83.5,113C 76.8277,114.163 73.8277,111.329 74.5,104.5C 75.5,104.5 76.5,104.5 77.5,104.5 Z"/></g>
<g><path style="opacity:1" fill="#0a76d1" d="M 87.5,104.5 C 85.1522,106.68 82.6522,108.68 80,110.5C 77.9803,109.968 77.147,108.635 77.5,106.5C 82.8123,101.854 87.8123,96.8544 92.5,91.5C 94.1667,91.8333 95.1667,92.8333 95.5,94.5C 93.2219,98.1149 90.5553,101.448 87.5,104.5 Z"/></g>
<g><path style="opacity:1" fill="#24d7ed" d="M 59.5,97.5 C 59.5,98.1667 59.5,98.8333 59.5,99.5C 53.4533,105.216 47.4533,110.883 41.5,116.5C 41.5,116.167 41.5,115.833 41.5,115.5C 47.1667,109.167 53.1667,103.167 59.5,97.5 Z"/></g>
<g><path style="opacity:1" fill="#0b77d3" d="M 41.5,116.5 C 47.4533,110.883 53.4533,105.216 59.5,99.5C 61.7043,96.9024 63.3709,97.4024 64.5,101C 58.1884,107.312 51.8551,113.645 45.5,120C 41.8461,120.74 40.5128,119.574 41.5,116.5 Z"/></g>
<g><path style="opacity:0.894" fill="#36a5ce" d="M 66.5,102.5 C 61.5379,108.797 56.2046,114.797 50.5,120.5C 45.3261,126.129 40.9927,125.463 37.5,118.5C 37.2729,116.067 38.2729,114.401 40.5,113.5C 40.3284,114.492 40.6618,115.158 41.5,115.5C 41.5,115.833 41.5,116.167 41.5,116.5C 40.5128,119.574 41.8461,120.74 45.5,120C 51.8551,113.645 58.1884,107.312 64.5,101C 63.3709,97.4024 61.7043,96.9024 59.5,99.5C 59.5,98.8333 59.5,98.1667 59.5,97.5C 58.8333,96.8333 58.1667,96.1667 57.5,95.5C 63.5507,93.706 66.5507,96.0394 66.5,102.5 Z"/></g>
<g><path style="opacity:0.886" fill="#67bed8" d="M 85.5,118.5 C 86.2905,119.401 87.2905,120.068 88.5,120.5C 84.2285,126.11 79.5618,131.443 74.5,136.5C 72.4508,136.294 72.1175,135.461 73.5,134C 72.552,133.517 71.552,133.351 70.5,133.5C 74.8333,128.833 79.1667,124.167 83.5,119.5C 84.1667,119.167 84.8333,118.833 85.5,118.5 Z"/></g>
<g><path style="opacity:1" fill="#096cc8" d="M 88.5,120.5 C 90.3109,120.572 91.6443,121.405 92.5,123C 88.5919,128.914 83.9253,134.247 78.5,139C 76.7111,139.52 75.0444,139.187 73.5,138C 74.056,137.617 74.3893,137.117 74.5,136.5C 79.5618,131.443 84.2285,126.11 88.5,120.5 Z"/></g>
<g><path style="opacity:1" fill="#46a3ca" d="M 124.5,114.5 C 126.903,114.448 129.236,114.781 131.5,115.5C 132.555,118.073 132.722,120.739 132,123.5C 127.867,128.634 123.367,133.468 118.5,138C 114.73,140.279 111.396,139.779 108.5,136.5C 107.456,134.232 107.289,131.899 108,129.5C 111.336,125.332 114.836,121.332 118.5,117.5C 120.5,116.5 122.5,115.5 124.5,114.5 Z"/></g>
<g><path style="opacity:1" fill="#0a68c7" d="M 125.5,116.5 C 128.473,116.965 129.64,118.632 129,121.5C 124.5,126 120,130.5 115.5,135C 112.086,135.757 111.086,134.59 112.5,131.5C 114.854,128.312 117.688,125.645 121,123.5C 122.75,121.266 124.25,118.932 125.5,116.5 Z"/></g>
<g><path style="opacity:1" fill="#3097c0" d="M 93.5,118.5 C 95.432,121.177 95.932,124.177 95,127.5C 89.8333,132.667 84.6667,137.833 79.5,143C 72.9545,143.286 69.9545,140.12 70.5,133.5C 71.552,133.351 72.552,133.517 73.5,134C 72.1175,135.461 72.4508,136.294 74.5,136.5C 74.3893,137.117 74.056,137.617 73.5,138C 75.0444,139.187 76.7111,139.52 78.5,139C 83.9253,134.247 88.5919,128.914 92.5,123C 91.6443,121.405 90.3109,120.572 88.5,120.5C 87.2905,120.068 86.2905,119.401 85.5,118.5C 88.1038,117.47 90.7705,117.47 93.5,118.5 Z"/></g>
</svg>
