<?xml version="1.0" encoding="UTF-8"?>
<!DOCTYPE svg PUBLIC "-//W3C//DTD SVG 1.1//EN" "http://www.w3.org/Graphics/SVG/1.1/DTD/svg11.dtd">
<svg xmlns="http://www.w3.org/2000/svg" version="1.1" width="160px" height="171px" style="shape-rendering:geometricPrecision; text-rendering:geometricPrecision; image-rendering:optimizeQuality; fill-rule:evenodd; clip-rule:evenodd" xmlns:xlink="http://www.w3.org/1999/xlink">
<g><path style="opacity:1" fill="#e2b74b" d="M 33.5,22.5 C 38.7083,22.369 40.3749,24.7024 38.5,29.5C 31.7892,30.7881 30.1225,28.4548 33.5,22.5 Z"/></g>
<g><path style="opacity:1" fill="#ddb649" d="M 62.5,23.5 C 67.7497,23.2357 69.4163,25.569 67.5,30.5C 63.9336,32.3591 61.6002,31.3591 60.5,27.5C 61.1799,26.1401 61.8466,24.8068 62.5,23.5 Z"/></g>
<g><path style="opacity:1" fill="#e5c031" d="M 60.5,38.5 C 58.9242,41.9592 57.5909,45.6259 56.5,49.5C 58.5014,51.4866 59.3348,53.8199 59,56.5C 56.2874,61.7099 52.4541,65.7099 47.5,68.5C 45.139,68.6741 42.8056,69.0074 40.5,69.5C 40.4809,67.9397 40.1476,66.4397 39.5,65C 40.6191,61.2389 41.2857,57.4055 41.5,53.5C 44.1213,53.5228 45.4546,52.1895 45.5,49.5C 44.4529,47.9436 43.7863,46.2769 43.5,44.5C 42.5,44.5 41.5,44.5 40.5,44.5C 39.9423,43.2101 38.9423,42.3768 37.5,42C 40.2687,37.4083 44.4354,35.5749 50,36.5C 53.7822,36.3791 57.2822,37.0458 60.5,38.5 Z"/></g>
<g><path style="opacity:0.988" fill="#f1f2f1" d="M 87.5,42.5 C 85.6342,46.1575 83.4675,49.8242 81,53.5C 80.6667,55.1667 80.3333,56.8333 80,58.5C 76.3751,64.6857 72.2084,70.5191 67.5,76C 61.7885,76.7423 56.1219,77.7423 50.5,79C 46.6749,81.4881 44.5082,84.9881 44,89.5C 42.9805,90.6872 41.8139,91.6872 40.5,92.5C 40.0008,96.1974 38.6675,99.5307 36.5,102.5C 32.4046,104.85 29.0713,108.017 26.5,112C 24.9419,112.21 23.6085,112.71 22.5,113.5C 18.3933,101.771 20.3933,91.1046 28.5,81.5C 33.7626,77.7025 39.4292,74.7025 45.5,72.5C 50.2621,71.2487 54.0954,68.5821 57,64.5C 60.9145,56.7655 66.0812,50.0989 72.5,44.5C 77.5395,42.5976 82.5395,41.9309 87.5,42.5 Z"/></g>
<g><path style="opacity:0.994" fill="#eaeceb" d="M 87.5,42.5 C 89.7354,42.2053 91.7354,42.5386 93.5,43.5C 91.1019,49.4943 88.7686,55.661 86.5,62C 86.1142,69.5749 82.6142,75.7416 76,80.5C 75.6667,80.1667 75.3333,79.8333 75,79.5C 74.0975,80.7014 72.9308,81.5348 71.5,82C 66.1815,82.9427 60.8481,83.776 55.5,84.5C 50.0924,88.6217 45.5924,93.6217 42,99.5C 39.5378,104.903 36.7045,110.069 33.5,115C 34.5458,116.539 35.8791,116.705 37.5,115.5C 38.9317,115.733 39.4317,116.4 39,117.5C 36.4412,121.113 33.4412,121.446 30,118.5C 28.5405,118.808 27.3739,119.475 26.5,120.5C 24.412,118.664 23.0787,116.331 22.5,113.5C 23.6085,112.71 24.9419,112.21 26.5,112C 29.0713,108.017 32.4046,104.85 36.5,102.5C 38.6675,99.5307 40.0008,96.1974 40.5,92.5C 41.8139,91.6872 42.9805,90.6872 44,89.5C 44.5082,84.9881 46.6749,81.4881 50.5,79C 56.1219,77.7423 61.7885,76.7423 67.5,76C 72.2084,70.5191 76.3751,64.6857 80,58.5C 80.3333,56.8333 80.6667,55.1667 81,53.5C 83.4675,49.8242 85.6342,46.1575 87.5,42.5 Z"/></g>
<g><path style="opacity:0.994" fill="#e3e5e4" d="M 93.5,43.5 C 96.2406,43.7073 98.5739,44.7073 100.5,46.5C 98.1968,50.7044 98.8635,54.7044 102.5,58.5C 107.468,63.4138 112.968,67.7471 119,71.5C 122.014,70.037 125.348,69.3703 129,69.5C 130.214,71.0488 131.714,72.2155 133.5,73C 131.085,77.9187 132.418,81.752 137.5,84.5C 137.715,86.1788 137.048,87.1788 135.5,87.5C 131.249,82.7873 126.916,82.6207 122.5,87C 119.553,88.4461 116.72,89.2794 114,89.5C 115.101,87.2076 114.268,85.7076 111.5,85C 112.833,84.3333 112.833,83.6667 111.5,83C 112.061,81.324 113.061,79.9906 114.5,79C 114.167,78.6667 113.833,78.3333 113.5,78C 115.007,77.1627 115.507,75.9961 115,74.5C 109.074,70.5787 103.741,65.912 99,60.5C 96.2743,66.8933 93.7743,73.3933 91.5,80C 91.8333,80.3333 92.1667,80.6667 92.5,81C 89.2378,86.5488 84.4045,89.7154 78,90.5C 72.6725,90.5322 67.0059,90.1989 61,89.5C 53.3587,93.1413 47.692,98.808 44,106.5C 41.9344,111.363 40.2678,116.363 39,121.5C 36.9269,123.421 34.7602,125.088 32.5,126.5C 29.5964,125.386 27.5964,123.386 26.5,120.5C 27.3739,119.475 28.5405,118.808 30,118.5C 33.4412,121.446 36.4412,121.113 39,117.5C 39.4317,116.4 38.9317,115.733 37.5,115.5C 35.8791,116.705 34.5458,116.539 33.5,115C 36.7045,110.069 39.5378,104.903 42,99.5C 45.5924,93.6217 50.0924,88.6217 55.5,84.5C 60.8481,83.776 66.1815,82.9427 71.5,82C 72.9308,81.5348 74.0975,80.7014 75,79.5C 75.3333,79.8333 75.6667,80.1667 76,80.5C 82.6142,75.7416 86.1142,69.5749 86.5,62C 88.7686,55.661 91.1019,49.4943 93.5,43.5 Z"/></g>
<g><path style="opacity:1" fill="#e2b84b" d="M 12.5,42.5 C 18.0204,43.0435 19.3538,45.5435 16.5,50C 10.4128,50.2054 9.07946,47.7054 12.5,42.5 Z"/></g>
<g><path style="opacity:1" fill="#efd97f" d="M 40.5,44.5 C 42.4607,46.7982 43.4607,49.4649 43.5,52.5C 41.1305,52.1489 38.7972,51.9822 36.5,52C 39.6071,55.1705 40.2737,58.8371 38.5,63C 35.725,63.7783 33.225,63.2783 31,61.5C 30.2352,61.5699 29.7352,61.9033 29.5,62.5C 28.8501,62.8039 28.1835,63.1373 27.5,63.5C 25.3139,57.573 26.8139,52.9063 32,49.5C 33.2804,45.4358 36.1137,43.7691 40.5,44.5 Z"/></g>
<g><path style="opacity:1" fill="#f0d968" d="M 63.5,38.5 C 62.5,38.5 61.5,38.5 60.5,38.5C 57.2822,37.0458 53.7822,36.3791 50,36.5C 44.4354,35.5749 40.2687,37.4083 37.5,42C 38.9423,42.3768 39.9423,43.2101 40.5,44.5C 36.1137,43.7691 33.2804,45.4358 32,49.5C 26.8139,52.9063 25.3139,57.573 27.5,63.5C 28.1835,63.1373 28.8501,62.8039 29.5,62.5C 29.3155,65.1731 28.1489,65.8398 26,64.5C 25.3064,68.554 25.4731,72.554 26.5,76.5C 18.9175,61.0001 22.2509,48.1668 36.5,38C 45.7484,33.1921 54.7484,33.3588 63.5,38.5 Z"/></g>
<g><path style="opacity:1" fill="#dfb93e" d="M 60.5,38.5 C 61.5,38.5 62.5,38.5 63.5,38.5C 67.026,39.6895 70.026,41.6895 72.5,44.5C 66.0812,50.0989 60.9145,56.7655 57,64.5C 54.0954,68.5821 50.2621,71.2487 45.5,72.5C 46.1667,71.1667 46.8333,69.8333 47.5,68.5C 52.4541,65.7099 56.2874,61.7099 59,56.5C 59.3348,53.8199 58.5014,51.4866 56.5,49.5C 57.5909,45.6259 58.9242,41.9592 60.5,38.5 Z"/></g>
<g><path style="opacity:0.999" fill="#dcdede" d="M 135.5,87.5 C 130.852,88.3262 126.852,90.4929 123.5,94C 113.63,98.8135 104.297,98.6469 95.5,93.5C 93.3432,94.0505 91.3432,94.7171 89.5,95.5C 87.9731,95.427 86.9731,96.0937 86.5,97.5C 85.2438,97.4614 84.2438,97.9614 83.5,99C 76.1667,99.3333 68.8333,99.6667 61.5,100C 54.3952,101.771 49.8952,106.271 48,113.5C 47.1442,118.556 46.1442,123.556 45,128.5C 43.5913,129.781 42.0913,130.781 40.5,131.5C 37.4604,130.32 34.7937,128.653 32.5,126.5C 34.7602,125.088 36.9269,123.421 39,121.5C 40.2678,116.363 41.9344,111.363 44,106.5C 47.692,98.808 53.3587,93.1413 61,89.5C 67.0059,90.1989 72.6725,90.5322 78,90.5C 84.4045,89.7154 89.2378,86.5488 92.5,81C 92.1667,80.6667 91.8333,80.3333 91.5,80C 93.7743,73.3933 96.2743,66.8933 99,60.5C 103.741,65.912 109.074,70.5787 115,74.5C 115.507,75.9961 115.007,77.1627 113.5,78C 113.833,78.3333 114.167,78.6667 114.5,79C 113.061,79.9906 112.061,81.324 111.5,83C 112.833,83.6667 112.833,84.3333 111.5,85C 114.268,85.7076 115.101,87.2076 114,89.5C 116.72,89.2794 119.553,88.4461 122.5,87C 126.916,82.6207 131.249,82.7873 135.5,87.5 Z"/></g>
<g><path style="opacity:0.922" fill="#dddddc" d="M 100.5,46.5 C 103.09,47.1283 105.423,48.295 107.5,50C 112.833,54.6667 118.167,59.3333 123.5,64C 129.734,67.6082 135.734,71.4415 141.5,75.5C 140.792,77.3779 139.626,79.0445 138,80.5C 137.51,81.7932 137.343,83.1266 137.5,84.5C 132.418,81.752 131.085,77.9187 133.5,73C 131.714,72.2155 130.214,71.0488 129,69.5C 125.348,69.3703 122.014,70.037 119,71.5C 112.968,67.7471 107.468,63.4138 102.5,58.5C 98.8635,54.7044 98.1968,50.7044 100.5,46.5 Z"/></g>
<g><path style="opacity:1" fill="#ebce48" d="M 40.5,44.5 C 41.5,44.5 42.5,44.5 43.5,44.5C 43.7863,46.2769 44.4529,47.9436 45.5,49.5C 45.4546,52.1895 44.1213,53.5228 41.5,53.5C 41.2857,57.4055 40.6191,61.2389 39.5,65C 40.1476,66.4397 40.4809,67.9397 40.5,69.5C 42.8056,69.0074 45.139,68.6741 47.5,68.5C 46.8333,69.8333 46.1667,71.1667 45.5,72.5C 39.4292,74.7025 33.7626,77.7025 28.5,81.5C 27.5592,79.9505 26.8925,78.2838 26.5,76.5C 25.4731,72.554 25.3064,68.554 26,64.5C 28.1489,65.8398 29.3155,65.1731 29.5,62.5C 29.7352,61.9033 30.2352,61.5699 31,61.5C 33.225,63.2783 35.725,63.7783 38.5,63C 40.2737,58.8371 39.6071,55.1705 36.5,52C 38.7972,51.9822 41.1305,52.1489 43.5,52.5C 43.4607,49.4649 42.4607,46.7982 40.5,44.5 Z"/></g>
<g><path style="opacity:1" fill="#e0bb4c" d="M 11.5,71.5 C 16.9836,71.4809 18.6503,73.9809 16.5,79C 10.2058,79.5776 8.5391,77.0776 11.5,71.5 Z"/></g>
<g><path style="opacity:1" fill="#d5d9da" d="M 141.5,75.5 C 143.167,76.5 144.5,77.8333 145.5,79.5C 143.409,82.435 141.075,85.2683 138.5,88C 133.38,91.5467 128.714,95.5467 124.5,100C 117.029,103.755 109.029,105.921 100.5,106.5C 97.812,101.812 94.1453,98.1453 89.5,95.5C 91.3432,94.7171 93.3432,94.0505 95.5,93.5C 104.297,98.6469 113.63,98.8135 123.5,94C 126.852,90.4929 130.852,88.3262 135.5,87.5C 137.048,87.1788 137.715,86.1788 137.5,84.5C 137.343,83.1266 137.51,81.7932 138,80.5C 139.626,79.0445 140.792,77.3779 141.5,75.5 Z"/></g>
<g><path style="opacity:1" fill="#219fcb" d="M 89.5,95.5 C 94.1453,98.1453 97.812,101.812 100.5,106.5C 101.657,109.307 101.657,111.974 100.5,114.5C 100.234,110.921 98.901,110.587 96.5,113.5C 95.6258,115.747 95.2924,118.08 95.5,120.5C 92.7543,122.126 89.7543,122.793 86.5,122.5C 83.2424,121.079 80.7424,118.746 79,115.5C 78.3333,113.833 78.3333,112.167 79,110.5C 79.5885,112.863 81.0885,113.863 83.5,113.5C 83.3184,111.409 83.6518,109.409 84.5,107.5C 83.0986,106.479 81.7653,105.479 80.5,104.5C 81.7618,100.991 83.5951,100.658 86,103.5C 87.6117,101.544 87.7784,99.5442 86.5,97.5C 86.9731,96.0937 87.9731,95.427 89.5,95.5 Z"/></g>
<g><path style="opacity:0.988" fill="#bfc0bf" d="M 155.5,103.5 C 151.175,121.808 139.508,130.808 120.5,130.5C 117.743,127.382 114.743,124.382 111.5,121.5C 112.317,119.692 111.65,118.192 109.5,117C 111.221,115.563 112.721,116.063 114,118.5C 112.39,113.604 114.223,111.604 119.5,112.5C 119.33,111.178 119.663,110.011 120.5,109C 129.26,104.539 137.76,99.7059 146,94.5C 147.537,95.0345 149.037,95.3678 150.5,95.5C 152.543,98.0111 154.209,100.678 155.5,103.5 Z"/></g>
<g><path style="opacity:1" fill="#ccd1d2" d="M 86.5,97.5 C 87.7784,99.5442 87.6117,101.544 86,103.5C 83.5951,100.658 81.7618,100.991 80.5,104.5C 78.6481,105.089 76.8148,105.756 75,106.5C 68.979,105.984 63.1457,107.317 57.5,110.5C 56.6184,111.76 55.6184,112.926 54.5,114C 54.8333,114.333 55.1667,114.667 55.5,115C 53.8446,116.444 53.178,118.278 53.5,120.5C 57.0419,120.187 60.3752,120.521 63.5,121.5C 63.5,122.167 63.8333,122.5 64.5,122.5C 64.6567,123.873 64.49,125.207 64,126.5C 62.3547,126.693 60.5213,126.86 58.5,127C 57.7476,127.671 57.4142,128.504 57.5,129.5C 56.0937,129.973 55.427,130.973 55.5,132.5C 55.5,133.167 55.1667,133.5 54.5,133.5C 49.7329,133.474 45.0662,132.807 40.5,131.5C 42.0913,130.781 43.5913,129.781 45,128.5C 46.1442,123.556 47.1442,118.556 48,113.5C 49.8952,106.271 54.3952,101.771 61.5,100C 68.8333,99.6667 76.1667,99.3333 83.5,99C 84.2438,97.9614 85.2438,97.4614 86.5,97.5 Z"/></g>
<g><path style="opacity:1" fill="#c9cdcd" d="M 145.5,79.5 C 152.512,85.8467 155.846,93.8467 155.5,103.5C 154.209,100.678 152.543,98.0111 150.5,95.5C 149.037,95.3678 147.537,95.0345 146,94.5C 137.76,99.7059 129.26,104.539 120.5,109C 119.663,110.011 119.33,111.178 119.5,112.5C 114.223,111.604 112.39,113.604 114,118.5C 112.721,116.063 111.221,115.563 109.5,117C 111.65,118.192 112.317,119.692 111.5,121.5C 108.477,119.839 106.143,120.505 104.5,123.5C 101.129,125.936 98.4619,128.936 96.5,132.5C 91.0198,131.996 85.3531,131.996 79.5,132.5C 77.0461,130.298 75.0461,127.632 73.5,124.5C 77.6934,123.717 82.0268,123.051 86.5,122.5C 89.7543,122.793 92.7543,122.126 95.5,120.5C 97.914,119.089 99.5806,117.089 100.5,114.5C 101.657,111.974 101.657,109.307 100.5,106.5C 109.029,105.921 117.029,103.755 124.5,100C 128.714,95.5467 133.38,91.5467 138.5,88C 141.075,85.2683 143.409,82.435 145.5,79.5 Z"/></g>
<g><path style="opacity:1" fill="#bac2c6" d="M 80.5,104.5 C 81.7653,105.479 83.0986,106.479 84.5,107.5C 83.6518,109.409 83.3184,111.409 83.5,113.5C 81.0885,113.863 79.5885,112.863 79,110.5C 78.3333,112.167 78.3333,113.833 79,115.5C 80.7424,118.746 83.2424,121.079 86.5,122.5C 82.0268,123.051 77.6934,123.717 73.5,124.5C 70.7911,121.133 67.4578,120.133 63.5,121.5C 60.3752,120.521 57.0419,120.187 53.5,120.5C 53.178,118.278 53.8446,116.444 55.5,115C 55.1667,114.667 54.8333,114.333 54.5,114C 55.6184,112.926 56.6184,111.76 57.5,110.5C 63.1457,107.317 68.979,105.984 75,106.5C 76.8148,105.756 78.6481,105.089 80.5,104.5 Z"/></g>
<g><path style="opacity:1" fill="#1bc6e3" d="M 100.5,114.5 C 99.5806,117.089 97.914,119.089 95.5,120.5C 95.2924,118.08 95.6258,115.747 96.5,113.5C 98.901,110.587 100.234,110.921 100.5,114.5 Z"/></g>
<g><path style="opacity:1" fill="#388ab2" d="M 73.5,124.5 C 75.0461,127.632 77.0461,130.298 79.5,132.5C 79.9321,135.877 79.2655,138.877 77.5,141.5C 77.2602,134.28 74.5935,128.113 69.5,123C 67.8659,122.506 66.1992,122.34 64.5,122.5C 63.8333,122.5 63.5,122.167 63.5,121.5C 67.4578,120.133 70.7911,121.133 73.5,124.5 Z"/></g>
<g><path style="opacity:1" fill="#26b1d6" d="M 64.5,122.5 C 66.1992,122.34 67.8659,122.506 69.5,123C 74.5935,128.113 77.2602,134.28 77.5,141.5C 73.9845,147.077 68.9845,148.91 62.5,147C 56.2254,144.706 53.5587,140.206 54.5,133.5C 55.1667,133.5 55.5,133.167 55.5,132.5C 56.339,133.641 57.0057,134.974 57.5,136.5C 58.325,137.386 59.325,137.719 60.5,137.5C 62.8055,133.46 61.8055,130.793 57.5,129.5C 57.4142,128.504 57.7476,127.671 58.5,127C 60.5213,126.86 62.3547,126.693 64,126.5C 64.49,125.207 64.6567,123.873 64.5,122.5 Z"/></g>
<g><path style="opacity:1" fill="#2da4d0" d="M 119.5,141.5 C 115.985,147.077 110.985,148.91 104.5,147C 97.8068,144.451 95.1401,139.617 96.5,132.5C 98.4619,128.936 101.129,125.936 104.5,123.5C 107.573,121.862 110.406,122.195 113,124.5C 117.039,129.451 119.206,135.118 119.5,141.5 Z"/></g>
<g><path style="opacity:1" fill="#8dcade" d="M 57.5,129.5 C 61.8055,130.793 62.8055,133.46 60.5,137.5C 59.325,137.719 58.325,137.386 57.5,136.5C 57.0057,134.974 56.339,133.641 55.5,132.5C 55.427,130.973 56.0937,129.973 57.5,129.5 Z"/></g>
<g><path style="opacity:1" fill="#307ea8" d="M 111.5,121.5 C 114.743,124.382 117.743,127.382 120.5,130.5C 122.1,134.452 121.766,138.118 119.5,141.5C 119.206,135.118 117.039,129.451 113,124.5C 110.406,122.195 107.573,121.862 104.5,123.5C 106.143,120.505 108.477,119.839 111.5,121.5 Z"/></g>
</svg>
