<?xml version="1.0" encoding="UTF-8"?>
<!DOCTYPE svg PUBLIC "-//W3C//DTD SVG 1.1//EN" "http://www.w3.org/Graphics/SVG/1.1/DTD/svg11.dtd">
<svg xmlns="http://www.w3.org/2000/svg" version="1.1" width="168px" height="168px" style="shape-rendering:geometricPrecision; text-rendering:geometricPrecision; image-rendering:optimizeQuality; fill-rule:evenodd; clip-rule:evenodd" xmlns:xlink="http://www.w3.org/1999/xlink">
<g><path style="opacity:1" fill="#d0cfcd" d="M 128.5,19.5 C 127.579,25.2925 124.745,26.6258 120,23.5C 118.481,21.8608 118.314,20.1942 119.5,18.5C 120.492,16.9735 121.992,16.3068 124,16.5C 126.256,16.5466 127.756,17.5466 128.5,19.5 Z"/></g>
<g><path style="opacity:0.112" fill="#141414" d="M 119.5,18.5 C 118.314,20.1942 118.481,21.8608 120,23.5C 124.745,26.6258 127.579,25.2925 128.5,19.5C 130.735,20.2858 131.735,21.9524 131.5,24.5C 131.564,26.5566 130.898,28.2233 129.5,29.5C 127.426,30.5139 125.426,31.5139 123.5,32.5C 120.903,32.3568 118.569,31.5234 116.5,30C 117.654,29.0862 117.487,28.2529 116,27.5C 115.333,25.1667 115.333,22.8333 116,20.5C 116.816,19.1772 117.983,18.5106 119.5,18.5 Z"/></g>
<g><path style="opacity:0.008" fill="#959595" d="M 129.5,29.5 C 128.393,31.9689 126.393,32.9689 123.5,32.5C 125.426,31.5139 127.426,30.5139 129.5,29.5 Z"/></g>
<g><path style="opacity:1" fill="#c8c6c1" d="M 90.5,33.5 C 91.791,33.2627 92.791,33.596 93.5,34.5C 93.0618,34.4346 92.7284,34.6012 92.5,35C 95.8223,37.5583 99.489,39.5583 103.5,41C 98.1456,41.3905 92.8123,41.8905 87.5,42.5C 87.1667,42.5 86.8333,42.5 86.5,42.5C 76.0035,38.6037 65.3368,38.6037 54.5,42.5C 53.6667,43.5 52.8333,44.5 52,45.5C 49.9068,44.766 49.4068,45.4327 50.5,47.5C 50.5,47.8333 50.5,48.1667 50.5,48.5C 43.7088,44.4676 44.0421,40.9676 51.5,38C 64.8273,37.2124 78.1606,36.5457 91.5,36C 89.3808,35.6582 89.0474,34.8249 90.5,33.5 Z"/></g>
<g><path style="opacity:1" fill="#e3e3e1" d="M 93.5,34.5 C 104.439,34.6848 114.772,37.0181 124.5,41.5C 123.883,43.3208 123.716,45.3208 124,47.5C 119.143,51.343 114.31,51.1764 109.5,47C 101.956,45.8583 94.6228,44.3583 87.5,42.5C 92.8123,41.8905 98.1456,41.3905 103.5,41C 99.489,39.5583 95.8223,37.5583 92.5,35C 92.7284,34.6012 93.0618,34.4346 93.5,34.5 Z"/></g>
<g><path style="opacity:1" fill="#9e9d98" d="M 86.5,42.5 C 81.6816,42.948 77.0149,43.948 72.5,45.5C 65.1717,44.3756 57.8383,45.0423 50.5,47.5C 49.4068,45.4327 49.9068,44.766 52,45.5C 52.8333,44.5 53.6667,43.5 54.5,42.5C 65.3368,38.6037 76.0035,38.6037 86.5,42.5 Z"/></g>
<g><path style="opacity:0.988" fill="#e3e1dd" d="M 90.5,33.5 C 89.0474,34.8249 89.3808,35.6582 91.5,36C 78.1606,36.5457 64.8273,37.2124 51.5,38C 44.0421,40.9676 43.7088,44.4676 50.5,48.5C 53.1123,49.3705 55.779,50.0372 58.5,50.5C 61.8088,52.3699 65.4754,53.3699 69.5,53.5C 74.8333,53.5 80.1667,53.5 85.5,53.5C 87.8333,53.5 90.1667,53.5 92.5,53.5C 94.1992,53.3398 95.8659,53.5065 97.5,54C 84.4863,55.0931 71.4863,56.2598 58.5,57.5C 55.5,57.3333 52.5,57.1667 49.5,57C 46.8107,55.0758 43.8107,53.9091 40.5,53.5C 37.9392,50.4997 37.2725,47.1663 38.5,43.5C 40.0714,40.7687 42.4048,38.9354 45.5,38C 49.0569,36.5921 52.7235,35.5921 56.5,35C 67.7972,33.7414 79.1305,33.2414 90.5,33.5 Z"/></g>
<g><path style="opacity:0.209" fill="#050505" d="M 72.5,45.5 C 67.6932,46.769 63.0265,48.4356 58.5,50.5C 55.779,50.0372 53.1123,49.3705 50.5,48.5C 50.5,48.1667 50.5,47.8333 50.5,47.5C 57.8383,45.0423 65.1717,44.3756 72.5,45.5 Z"/></g>
<g><path style="opacity:0.008" fill="#353535" d="M 126.5,42.5 C 128.89,43.8908 130.557,45.8908 131.5,48.5C 130.833,48.5 130.167,48.5 129.5,48.5C 128.471,46.4832 127.471,44.4832 126.5,42.5 Z"/></g>
<g><path style="opacity:0.127" fill="#080808" d="M 131.5,49.5 C 135.182,56.9488 133.182,62.4488 125.5,66C 112.998,68.9999 100.332,70.8333 87.5,71.5C 79.8851,72.0822 72.0518,71.4155 64,69.5C 61.8415,70.489 60.6748,72.1556 60.5,74.5C 55.3319,70.8862 55.3319,67.0529 60.5,63C 62.1341,62.5065 63.8008,62.3398 65.5,62.5C 74.6517,63.4936 83.985,63.8269 93.5,63.5C 103.669,63.1455 113.669,61.6455 123.5,59C 128.192,57.4065 130.858,54.2399 131.5,49.5 Z"/></g>
<g><path style="opacity:1" fill="#cdccc7" d="M 124.5,41.5 C 125.167,41.8333 125.833,42.1667 126.5,42.5C 127.471,44.4832 128.471,46.4832 129.5,48.5C 128.514,50.4077 126.848,51.4077 124.5,51.5C 109.098,55.1963 93.4318,57.6963 77.5,59C 73.4815,60.1705 69.4815,61.3372 65.5,62.5C 63.8008,62.3398 62.1341,62.5065 60.5,63C 55.3319,67.0529 55.3319,70.8862 60.5,74.5C 61.1667,74.5 61.5,74.8333 61.5,75.5C 60.1266,75.6567 58.7932,75.49 57.5,75C 55.7721,73.027 53.9387,71.1937 52,69.5C 52.0835,65.6887 51.2501,62.3554 49.5,59.5C 46.0177,58.2564 43.0177,56.2564 40.5,53.5C 43.8107,53.9091 46.8107,55.0758 49.5,57C 52.5,57.1667 55.5,57.3333 58.5,57.5C 71.4863,56.2598 84.4863,55.0931 97.5,54C 95.8659,53.5065 94.1992,53.3398 92.5,53.5C 96.2984,52.5166 100.298,52.1832 104.5,52.5C 106.103,52.6882 107.437,52.1882 108.5,51C 94.4339,47.457 80.4339,47.7903 66.5,52C 67.7375,52.2321 68.7375,52.7321 69.5,53.5C 65.4754,53.3699 61.8088,52.3699 58.5,50.5C 63.0265,48.4356 67.6932,46.769 72.5,45.5C 77.0149,43.948 81.6816,42.948 86.5,42.5C 86.8333,42.5 87.1667,42.5 87.5,42.5C 94.6228,44.3583 101.956,45.8583 109.5,47C 114.31,51.1764 119.143,51.343 124,47.5C 123.716,45.3208 123.883,43.3208 124.5,41.5 Z"/></g>
<g><path style="opacity:0.302" fill="#2c2c2a" d="M 104.5,52.5 C 100.298,52.1832 96.2984,52.5166 92.5,53.5C 90.1667,53.5 87.8333,53.5 85.5,53.5C 91.7677,51.4789 98.1011,51.1455 104.5,52.5 Z"/></g>
<g><path style="opacity:1" fill="#a4a4a0" d="M 104.5,52.5 C 98.1011,51.1455 91.7677,51.4789 85.5,53.5C 80.1667,53.5 74.8333,53.5 69.5,53.5C 68.7375,52.7321 67.7375,52.2321 66.5,52C 80.4339,47.7903 94.4339,47.457 108.5,51C 107.437,52.1882 106.103,52.6882 104.5,52.5 Z"/></g>
<g><path style="opacity:1" fill="#aeb0ad" d="M 124.5,51.5 C 120.519,53.6781 116.185,55.1781 111.5,56C 102.888,56.6541 94.5551,58.3208 86.5,61C 88.8329,62.043 91.1663,62.8763 93.5,63.5C 83.985,63.8269 74.6517,63.4936 65.5,62.5C 69.4815,61.3372 73.4815,60.1705 77.5,59C 93.4318,57.6963 109.098,55.1963 124.5,51.5 Z"/></g>
<g><path style="opacity:1" fill="#959594" d="M 129.5,48.5 C 130.167,48.5 130.833,48.5 131.5,48.5C 131.5,48.8333 131.5,49.1667 131.5,49.5C 130.858,54.2399 128.192,57.4065 123.5,59C 113.669,61.6455 103.669,63.1455 93.5,63.5C 91.1663,62.8763 88.8329,62.043 86.5,61C 94.5551,58.3208 102.888,56.6541 111.5,56C 116.185,55.1781 120.519,53.6781 124.5,51.5C 126.848,51.4077 128.514,50.4077 129.5,48.5 Z"/></g>
<g><path style="opacity:0.091" fill="#171717" d="M 38.5,43.5 C 37.2725,47.1663 37.9392,50.4997 40.5,53.5C 43.0177,56.2564 46.0177,58.2564 49.5,59.5C 43.2933,69.0937 44.96,77.2604 54.5,84C 56.3325,84.7485 57.9991,85.7485 59.5,87C 56.2882,89.0194 54.6216,91.8527 54.5,95.5C 53.596,94.791 53.2627,93.791 53.5,92.5C 50.6244,89.2784 47.6244,86.1117 44.5,83C 41.8613,77.1531 41.8613,71.3198 44.5,65.5C 35.9086,60.6649 33.2419,53.6649 36.5,44.5C 36.9569,43.7025 37.6236,43.3691 38.5,43.5 Z"/></g>
<g><path style="opacity:0.682" fill="#d8d8d4" d="M 49.5,59.5 C 51.2501,62.3554 52.0835,65.6887 52,69.5C 53.9387,71.1937 55.7721,73.027 57.5,75C 58.7932,75.49 60.1266,75.6567 61.5,75.5C 65.1875,77.2608 69.0208,78.5941 73,79.5C 84.3478,74.8724 96.1811,72.2057 108.5,71.5C 112.535,71.6314 116.202,72.6314 119.5,74.5C 119.5,75.1667 119.5,75.8333 119.5,76.5C 113.077,79.0705 106.41,80.2372 99.5,80C 100.167,79.6667 100.833,79.3333 101.5,79C 94.1108,78.1994 86.7775,78.5328 79.5,80C 85.5,80.3333 91.5,80.6667 97.5,81C 91.1266,81.7413 84.7933,82.7413 78.5,84C 73.5291,86.6154 68.1958,88.1154 62.5,88.5C 61.4383,91.1029 61.2716,93.7695 62,96.5C 62.6708,97.2524 63.5041,97.5858 64.5,97.5C 65.922,98.925 67.5887,99.925 69.5,100.5C 70.6715,101.345 72.0048,102.011 73.5,102.5C 78.6284,103.995 83.9618,105.161 89.5,106C 85.8105,106.581 82.1438,106.415 78.5,105.5C 77.5,105.667 76.5,105.833 75.5,106C 73.964,107.96 72.1307,109.46 70,110.5C 67.863,109.923 65.6963,109.59 63.5,109.5C 57.2319,106.905 54.2319,102.238 54.5,95.5C 54.6216,91.8527 56.2882,89.0194 59.5,87C 57.9991,85.7485 56.3325,84.7485 54.5,84C 44.96,77.2604 43.2933,69.0937 49.5,59.5 Z"/></g>
<g><path style="opacity:0.141" fill="#0f0f0f" d="M 121.5,75.5 C 127.725,83.0846 126.059,89.2513 116.5,94C 103.037,97.8095 89.8701,98.9762 77,97.5C 74.3516,98.2142 71.8516,99.2142 69.5,100.5C 67.5887,99.925 65.922,98.925 64.5,97.5C 64.427,95.9731 65.0937,94.9731 66.5,94.5C 68.3083,93.0927 70.3083,91.926 72.5,91C 81.1667,90.6667 89.8333,90.3333 98.5,90C 106.877,89.868 114.377,87.368 121,82.5C 121.497,80.1902 121.663,77.8568 121.5,75.5 Z"/></g>
<g><path style="opacity:0.072" fill="#1a1a1a" d="M 23.5,86.5 C 24.4171,92.2004 27.5838,93.8671 33,91.5C 34.0086,89.9751 34.5086,88.3084 34.5,86.5C 38.4777,90.5498 38.4777,94.7165 34.5,99C 28.3011,101.49 23.6345,99.8234 20.5,94C 21.2524,93.3292 21.5858,92.4959 21.5,91.5C 22.1098,90.609 22.4431,89.609 22.5,88.5C 22.3284,87.5084 22.6618,86.8417 23.5,86.5 Z"/></g>
<g><path style="opacity:1" fill="#d0cfcd" d="M 34.5,86.5 C 34.5086,88.3084 34.0086,89.9751 33,91.5C 27.5838,93.8671 24.4171,92.2004 23.5,86.5C 26.2553,83.4821 29.5886,82.8154 33.5,84.5C 34.2975,84.9569 34.6309,85.6236 34.5,86.5 Z"/></g>
<g><path style="opacity:0.004" fill="#c6c6c6" d="M 22.5,88.5 C 22.4431,89.609 22.1098,90.609 21.5,91.5C 20.2848,90.221 20.6182,89.221 22.5,88.5 Z"/></g>
<g><path style="opacity:1" fill="#bbbab6" d="M 119.5,76.5 C 119.423,77.7498 118.756,78.5831 117.5,79C 108.469,81.8977 99.1353,83.5644 89.5,84C 84.8305,84.8882 80.4972,86.5549 76.5,89C 73.5,89.3333 70.5,89.6667 67.5,90C 66.6198,91.3561 66.2865,92.8561 66.5,94.5C 65.0937,94.9731 64.427,95.9731 64.5,97.5C 63.5041,97.5858 62.6708,97.2524 62,96.5C 61.2716,93.7695 61.4383,91.1029 62.5,88.5C 68.1958,88.1154 73.5291,86.6154 78.5,84C 84.7933,82.7413 91.1266,81.7413 97.5,81C 91.5,80.6667 85.5,80.3333 79.5,80C 86.7775,78.5328 94.1108,78.1994 101.5,79C 100.833,79.3333 100.167,79.6667 99.5,80C 106.41,80.2372 113.077,79.0705 119.5,76.5 Z"/></g>
<g><path style="opacity:0.778" fill="#9e9f9d" d="M 119.5,74.5 C 120.492,74.3284 121.158,74.6618 121.5,75.5C 121.663,77.8568 121.497,80.1902 121,82.5C 114.377,87.368 106.877,89.868 98.5,90C 89.8333,90.3333 81.1667,90.6667 72.5,91C 70.3083,91.926 68.3083,93.0927 66.5,94.5C 66.2865,92.8561 66.6198,91.3561 67.5,90C 70.5,89.6667 73.5,89.3333 76.5,89C 80.4972,86.5549 84.8305,84.8882 89.5,84C 99.1353,83.5644 108.469,81.8977 117.5,79C 118.756,78.5831 119.423,77.7498 119.5,76.5C 119.5,75.8333 119.5,75.1667 119.5,74.5 Z"/></g>
<g><path style="opacity:0.075" fill="#191919" d="M 136.5,98.5 C 134.761,103.354 136.428,106.354 141.5,107.5C 145.465,106.213 147.465,103.546 147.5,99.5C 148.837,100.315 149.837,101.482 150.5,103C 150.465,113.05 145.799,116.384 136.5,113C 133.037,109.888 131.704,106.221 132.5,102C 133.532,100.373 134.866,99.2066 136.5,98.5 Z"/></g>
<g><path style="opacity:1" fill="#cdcdc9" d="M 112.5,102.5 C 107.203,104.703 101.536,106.37 95.5,107.5C 90.8215,107.334 86.1548,107.501 81.5,108C 79.221,108.473 77.221,109.473 75.5,111C 73.1902,111.497 70.8568,111.663 68.5,111.5C 68.8333,114.167 69.1667,116.833 69.5,119.5C 71.5643,119.687 73.5643,120.187 75.5,121C 74.8333,123 74.1667,125 73.5,127C 74.1667,127.333 74.8333,127.667 75.5,128C 72.6783,128.428 70.0116,127.928 67.5,126.5C 62.2866,122.182 61.2866,117.015 64.5,111C 63.944,110.617 63.6107,110.117 63.5,109.5C 65.6963,109.59 67.863,109.923 70,110.5C 72.1307,109.46 73.964,107.96 75.5,106C 76.5,105.833 77.5,105.667 78.5,105.5C 82.1438,106.415 85.8105,106.581 89.5,106C 83.9618,105.161 78.6284,103.995 73.5,102.5C 85.334,99.7166 97.334,98.8832 109.5,100C 110.942,100.377 111.942,101.21 112.5,102.5 Z"/></g>
<g><path style="opacity:1" fill="#cac8c7" d="M 147.5,99.5 C 147.465,103.546 145.465,106.213 141.5,107.5C 136.428,106.354 134.761,103.354 136.5,98.5C 140.441,95.656 144.107,95.9893 147.5,99.5 Z"/></g>
<g><path style="opacity:0.162" fill="#0e0e0e" d="M 113.5,103.5 C 114.75,103.577 115.583,104.244 116,105.5C 118.085,112.803 115.585,117.47 108.5,119.5C 107.5,119.5 106.5,119.5 105.5,119.5C 104.942,118.21 103.942,117.377 102.5,117C 94.4937,115.44 87.1603,116.94 80.5,121.5C 78.0297,120.763 75.6964,119.763 73.5,118.5C 73.33,117.178 73.6634,116.011 74.5,115C 82.8333,114.667 91.1667,114.333 99.5,114C 104.713,113.747 109.213,111.914 113,108.5C 113.494,106.866 113.66,105.199 113.5,103.5 Z"/></g>
<g><path style="opacity:1" fill="#999998" d="M 112.5,102.5 C 113.167,102.5 113.5,102.833 113.5,103.5C 113.66,105.199 113.494,106.866 113,108.5C 109.213,111.914 104.713,113.747 99.5,114C 91.1667,114.333 82.8333,114.667 74.5,115C 73.6634,116.011 73.33,117.178 73.5,118.5C 72.8141,117.152 71.8141,115.985 70.5,115C 78.6508,111.715 86.9841,109.215 95.5,107.5C 101.536,106.37 107.203,104.703 112.5,102.5 Z"/></g>
<g><path style="opacity:1" fill="#bcbcb8" d="M 95.5,107.5 C 86.9841,109.215 78.6508,111.715 70.5,115C 71.8141,115.985 72.8141,117.152 73.5,118.5C 75.6964,119.763 78.0297,120.763 80.5,121.5C 87.1603,116.94 94.4937,115.44 102.5,117C 103.942,117.377 104.942,118.21 105.5,119.5C 104.653,121.844 102.986,123.344 100.5,124C 94.1754,124.5 87.8421,124.666 81.5,124.5C 81.7035,126.39 81.0368,127.89 79.5,129C 77.1902,129.497 74.8568,129.663 72.5,129.5C 70.326,129.25 68.6594,128.25 67.5,126.5C 70.0116,127.928 72.6783,128.428 75.5,128C 74.8333,127.667 74.1667,127.333 73.5,127C 74.1667,125 74.8333,123 75.5,121C 73.5643,120.187 71.5643,119.687 69.5,119.5C 69.1667,116.833 68.8333,114.167 68.5,111.5C 70.8568,111.663 73.1902,111.497 75.5,111C 77.221,109.473 79.221,108.473 81.5,108C 86.1548,107.501 90.8215,107.334 95.5,107.5 Z"/></g>
<g><path style="opacity:0.119" fill="#141414" d="M 53.5,92.5 C 53.2627,93.791 53.596,94.791 54.5,95.5C 54.2319,102.238 57.2319,106.905 63.5,109.5C 63.6107,110.117 63.944,110.617 64.5,111C 61.2866,117.015 62.2866,122.182 67.5,126.5C 68.6594,128.25 70.326,129.25 72.5,129.5C 74.1484,130.927 76.1484,131.76 78.5,132C 84.5,132.667 90.5,132.667 96.5,132C 99.4456,131.194 102.112,129.861 104.5,128C 105.522,125.151 106.856,122.651 108.5,120.5C 109.325,123.615 109.992,126.448 110.5,129C 109.285,131.375 107.619,133.209 105.5,134.5C 104.662,134.842 104.328,135.508 104.5,136.5C 101.475,137.906 98.3079,139.239 95,140.5C 89.684,140.497 84.3507,140.497 79,140.5C 74.4167,138.736 70.2501,136.903 66.5,135C 60.2714,129.909 57.7714,123.409 59,115.5C 51.7396,110.196 49.4063,102.863 52,93.5C 52.3826,92.944 52.8826,92.6107 53.5,92.5 Z"/></g>
<g><path style="opacity:1" fill="#a2a4a3" d="M 105.5,119.5 C 106.5,119.5 107.5,119.5 108.5,119.5C 108.5,119.833 108.5,120.167 108.5,120.5C 106.856,122.651 105.522,125.151 104.5,128C 102.112,129.861 99.4456,131.194 96.5,132C 90.5,132.667 84.5,132.667 78.5,132C 76.1484,131.76 74.1484,130.927 72.5,129.5C 74.8568,129.663 77.1902,129.497 79.5,129C 81.0368,127.89 81.7035,126.39 81.5,124.5C 87.8421,124.666 94.1754,124.5 100.5,124C 102.986,123.344 104.653,121.844 105.5,119.5 Z"/></g>
<g><path style="opacity:0.004" fill="#dddddd" d="M 105.5,134.5 C 107.031,135.925 106.698,136.591 104.5,136.5C 104.328,135.508 104.662,134.842 105.5,134.5 Z"/></g>
</svg>
