<?xml version="1.0" encoding="UTF-8"?>
<!DOCTYPE svg PUBLIC "-//W3C//DTD SVG 1.1//EN" "http://www.w3.org/Graphics/SVG/1.1/DTD/svg11.dtd">
<svg xmlns="http://www.w3.org/2000/svg" version="1.1" width="160px" height="160px" style="shape-rendering:geometricPrecision; text-rendering:geometricPrecision; image-rendering:optimizeQuality; fill-rule:evenodd; clip-rule:evenodd" xmlns:xlink="http://www.w3.org/1999/xlink">
<g><path style="opacity:0.831" fill="#b5adeb" d="M 114.5,10.5 C 113.77,11.7124 112.77,12.7124 111.5,13.5C 110.44,19.0479 107.607,23.3812 103,26.5C 102.28,29.7507 101.113,32.7507 99.5,35.5C 97.3021,33.9019 94.9687,32.5686 92.5,31.5C 92.5,30.8333 92.5,30.1667 92.5,29.5C 96.7034,19.6355 104.037,13.3022 114.5,10.5 Z"/></g>
<g><path style="opacity:1" fill="#c1acda" d="M 38.5,18.5 C 42.2399,17.6799 44.5733,19.0132 45.5,22.5C 45.1667,26.9894 42.8334,28.4894 38.5,27C 35.8987,24.1705 35.8987,21.3371 38.5,18.5 Z"/></g>
<g><path style="opacity:0.987" fill="#ebecec" d="M 81.5,26.5 C 81.0618,26.4346 80.7284,26.6012 80.5,27C 81.624,27.2492 82.624,27.7492 83.5,28.5C 80.6111,32.5337 78.4444,36.5337 77,40.5C 76.6667,40.1667 76.3333,39.8333 76,39.5C 72.4699,45.7795 69.1366,52.1128 66,58.5C 62.7515,60.2071 59.5849,62.0404 56.5,64C 51.536,64.0355 46.8693,65.2022 42.5,67.5C 33.8019,75.1141 28.1352,84.2808 25.5,95C 29.674,96.5078 30.3407,98.8412 27.5,102C 24.8333,102.667 22.1667,102.667 19.5,102C 17.2976,100.612 15.2976,99.1122 13.5,97.5C 8.39669,82.6463 12.0634,70.4796 24.5,61C 38.3341,57.4872 48.1674,49.3205 54,36.5C 61.3407,27.6679 70.5074,24.3345 81.5,26.5 Z"/></g>
<g><path style="opacity:1" fill="#887adc" d="M 133.5,12.5 C 132.292,13.2341 130.959,13.5674 129.5,13.5C 125.281,12.979 121.614,14.1457 118.5,17C 113.957,21.5851 111.124,27.0851 110,33.5C 107.7,35.4094 105.2,36.7427 102.5,37.5C 101.5,36.8333 100.5,36.1667 99.5,35.5C 101.113,32.7507 102.28,29.7507 103,26.5C 107.607,23.3812 110.44,19.0479 111.5,13.5C 112.77,12.7124 113.77,11.7124 114.5,10.5C 121.204,8.7744 127.538,9.44106 133.5,12.5 Z"/></g>
<g><path style="opacity:1" fill="#6c5ccd" d="M 129.5,13.5 C 126.364,14.4301 123.531,16.0967 121,18.5C 119.018,25.0404 118.351,31.7071 119,38.5C 121.544,41.7227 123.711,45.2227 125.5,49C 124.851,50.6895 124.851,52.5229 125.5,54.5C 116.578,50.5384 108.912,44.8717 102.5,37.5C 105.2,36.7427 107.7,35.4094 110,33.5C 111.124,27.0851 113.957,21.5851 118.5,17C 121.614,14.1457 125.281,12.979 129.5,13.5 Z"/></g>
<g><path style="opacity:1" fill="#5b4dbd" d="M 133.5,12.5 C 134.702,15.4868 134.035,18.1535 131.5,20.5C 130.21,21.0577 129.377,22.0577 129,23.5C 128.805,28.4179 128.305,33.2512 127.5,38C 128.5,38.8333 129.5,39.6667 130.5,40.5C 129.975,41.1924 129.308,41.6924 128.5,42C 135.167,42.6667 135.167,43.3333 128.5,44C 135.662,51.0616 143.662,52.2283 152.5,47.5C 152.373,56.0804 148.706,63.0804 141.5,68.5C 138.86,65.1938 135.86,62.1938 132.5,59.5C 129.953,58.0664 127.619,56.3998 125.5,54.5C 124.851,52.5229 124.851,50.6895 125.5,49C 123.711,45.2227 121.544,41.7227 119,38.5C 118.351,31.7071 119.018,25.0404 121,18.5C 123.531,16.0967 126.364,14.4301 129.5,13.5C 130.959,13.5674 132.292,13.2341 133.5,12.5 Z"/></g>
<g><path style="opacity:1" fill="#c2add8" d="M 13.5,35.5 C 20.536,34.6026 22.2027,37.1026 18.5,43C 13.2569,43.0312 11.5903,40.5312 13.5,35.5 Z"/></g>
<g><path style="opacity:1" fill="#c8b5dd" d="M 31.5,35.5 C 37.1954,35.6317 38.8621,38.2984 36.5,43.5C 32.1471,46.4939 29.4805,45.3273 28.5,40C 28.5572,37.7911 29.5572,36.2911 31.5,35.5 Z"/></g>
<g><path style="opacity:1" fill="#7467c6" d="M 131.5,20.5 C 127.118,30.8562 129.785,38.6895 139.5,44C 144.012,44.9624 148.345,46.129 152.5,47.5C 143.662,52.2283 135.662,51.0616 128.5,44C 135.167,43.3333 135.167,42.6667 128.5,42C 129.308,41.6924 129.975,41.1924 130.5,40.5C 129.5,39.6667 128.5,38.8333 127.5,38C 128.305,33.2512 128.805,28.4179 129,23.5C 129.377,22.0577 130.21,21.0577 131.5,20.5 Z"/></g>
<g><path style="opacity:1" fill="#dee0df" d="M 81.5,26.5 C 85.3424,26.8925 89.0091,27.8925 92.5,29.5C 92.5,30.1667 92.5,30.8333 92.5,31.5C 92.8588,33.7659 92.1922,35.5993 90.5,37C 96.9532,46.0705 105.12,52.2372 115,55.5C 115.333,54.8333 115.667,54.1667 116,53.5C 117.512,54.2567 118.846,55.2567 120,56.5C 120.333,56.1667 120.667,55.8333 121,55.5C 122.851,57.0399 124.018,58.5399 124.5,60C 123.253,61.4936 123.253,62.9936 124.5,64.5C 125.833,66.1667 127.167,67.8333 128.5,69.5C 121.751,72.3805 115.584,76.3805 110,81.5C 107.419,84.2075 107.252,86.8741 109.5,89.5C 109.167,89.8333 108.833,90.1667 108.5,90.5C 98.7725,85.2901 90.9392,87.2901 85,96.5C 83.9596,100.533 84.6263,104.199 87,107.5C 87.3333,106.5 87.6667,105.5 88,104.5C 93.3753,110.338 99.3753,111.005 106,106.5C 106.97,103.556 107.804,100.556 108.5,97.5C 109.491,101.445 109.824,105.445 109.5,109.5C 111.735,109.795 113.735,109.461 115.5,108.5C 121.989,107.727 128.322,106.227 134.5,104C 137.174,103.33 139.507,102.163 141.5,100.5C 143.153,100.66 144.486,101.326 145.5,102.5C 144.636,103.688 143.636,104.855 142.5,106C 138.581,106.75 134.915,108.083 131.5,110C 125.088,110.593 118.755,111.593 112.5,113C 105.167,113.333 97.8333,113.667 90.5,114C 92.8146,115.368 92.8146,116.201 90.5,116.5C 84.3159,114.139 77.9826,113.473 71.5,114.5C 71.1373,115.183 70.8039,115.85 70.5,116.5C 69.8333,116.5 69.1667,116.5 68.5,116.5C 65.0871,110.706 66.9204,108.039 74,108.5C 76.5402,108.896 79.0402,109.063 81.5,109C 79.7283,104.369 79.0616,99.536 79.5,94.5C 78.5,94.5 77.5,94.5 76.5,94.5C 76.3354,92.1732 75.6687,90.0065 74.5,88C 63.7991,83.0729 53.4658,82.5729 43.5,86.5C 41.411,88.5799 39.7444,90.9133 38.5,93.5C 38.5904,95.4251 39.5904,96.5917 41.5,97C 44.4816,97.498 47.4816,97.6646 50.5,97.5C 50.3573,99.2624 50.6906,100.929 51.5,102.5C 53.9661,103.123 56.2994,103.957 58.5,105C 51.6018,109.807 43.9351,111.641 35.5,110.5C 29.4765,110.165 23.4765,109.999 17.5,110C 16.1772,110.816 15.5106,111.983 15.5,113.5C 13.8985,112.481 12.8985,110.981 12.5,109C 13.6254,107.037 14.9587,105.204 16.5,103.5C 15.1171,101.68 14.1171,99.6802 13.5,97.5C 15.2976,99.1122 17.2976,100.612 19.5,102C 22.1667,102.667 24.8333,102.667 27.5,102C 30.3407,98.8412 29.674,96.5078 25.5,95C 28.1352,84.2808 33.8019,75.1141 42.5,67.5C 46.8693,65.2022 51.536,64.0355 56.5,64C 59.5849,62.0404 62.7515,60.2071 66,58.5C 69.1366,52.1128 72.4699,45.7795 76,39.5C 76.3333,39.8333 76.6667,40.1667 77,40.5C 78.4444,36.5337 80.6111,32.5337 83.5,28.5C 82.624,27.7492 81.624,27.2492 80.5,27C 80.7284,26.6012 81.0618,26.4346 81.5,26.5 Z"/></g>
<g><path style="opacity:0.986" fill="#c6c7c7" d="M 132.5,59.5 C 135.86,62.1938 138.86,65.1938 141.5,68.5C 148.155,79.1293 148.155,89.796 141.5,100.5C 139.507,102.163 137.174,103.33 134.5,104C 128.322,106.227 121.989,107.727 115.5,108.5C 114.265,108.279 113.265,107.612 112.5,106.5C 111.99,102.154 110.99,97.9877 109.5,94C 110.328,93.0853 111.328,92.4186 112.5,92C 111.328,90.1316 111.495,88.2983 113,86.5C 117.916,80.5589 123.583,75.5589 130,71.5C 130.748,69.6675 131.748,68.0009 133,66.5C 133.556,64.1152 133.39,61.7819 132.5,59.5 Z"/></g>
<g><path style="opacity:1" fill="#d4d6d6" d="M 92.5,31.5 C 94.9687,32.5686 97.3021,33.9019 99.5,35.5C 100.5,36.1667 101.5,36.8333 102.5,37.5C 108.912,44.8717 116.578,50.5384 125.5,54.5C 127.619,56.3998 129.953,58.0664 132.5,59.5C 133.39,61.7819 133.556,64.1152 133,66.5C 131.748,68.0009 130.748,69.6675 130,71.5C 123.583,75.5589 117.916,80.5589 113,86.5C 111.495,88.2983 111.328,90.1316 112.5,92C 111.328,92.4186 110.328,93.0853 109.5,94C 110.99,97.9877 111.99,102.154 112.5,106.5C 113.265,107.612 114.265,108.279 115.5,108.5C 113.735,109.461 111.735,109.795 109.5,109.5C 109.824,105.445 109.491,101.445 108.5,97.5C 107.804,100.556 106.97,103.556 106,106.5C 99.3753,111.005 93.3753,110.338 88,104.5C 87.6667,105.5 87.3333,106.5 87,107.5C 84.6263,104.199 83.9596,100.533 85,96.5C 90.9392,87.2901 98.7725,85.2901 108.5,90.5C 108.833,90.1667 109.167,89.8333 109.5,89.5C 107.252,86.8741 107.419,84.2075 110,81.5C 115.584,76.3805 121.751,72.3805 128.5,69.5C 127.167,67.8333 125.833,66.1667 124.5,64.5C 123.253,62.9936 123.253,61.4936 124.5,60C 124.018,58.5399 122.851,57.0399 121,55.5C 120.667,55.8333 120.333,56.1667 120,56.5C 118.846,55.2567 117.512,54.2567 116,53.5C 115.667,54.1667 115.333,54.8333 115,55.5C 105.12,52.2372 96.9532,46.0705 90.5,37C 92.1922,35.5993 92.8588,33.7659 92.5,31.5 Z"/></g>
<g><path style="opacity:0.898" fill="#cecfce" d="M 68.5,116.5 C 50.6691,118.091 33.0025,117.091 15.5,113.5C 15.5106,111.983 16.1772,110.816 17.5,110C 23.4765,109.999 29.4765,110.165 35.5,110.5C 43.9351,111.641 51.6018,109.807 58.5,105C 56.2994,103.957 53.9661,103.123 51.5,102.5C 50.6906,100.929 50.3573,99.2624 50.5,97.5C 47.4816,97.6646 44.4816,97.498 41.5,97C 39.5904,96.5917 38.5904,95.4251 38.5,93.5C 39.7444,90.9133 41.411,88.5799 43.5,86.5C 53.4658,82.5729 63.7991,83.0729 74.5,88C 75.6687,90.0065 76.3354,92.1732 76.5,94.5C 77.5,94.5 78.5,94.5 79.5,94.5C 79.0616,99.536 79.7283,104.369 81.5,109C 79.0402,109.063 76.5402,108.896 74,108.5C 66.9204,108.039 65.0871,110.706 68.5,116.5 Z"/></g>
<g><path style="opacity:0.916" fill="#cccdca" d="M 145.5,102.5 C 146.811,104.56 146.811,106.726 145.5,109C 129.485,116.403 112.652,119.569 95,118.5C 86.6076,118.702 78.4409,118.035 70.5,116.5C 70.8039,115.85 71.1373,115.183 71.5,114.5C 77.9826,113.473 84.3159,114.139 90.5,116.5C 92.8146,116.201 92.8146,115.368 90.5,114C 97.8333,113.667 105.167,113.333 112.5,113C 118.755,111.593 125.088,110.593 131.5,110C 134.915,108.083 138.581,106.75 142.5,106C 143.636,104.855 144.636,103.688 145.5,102.5 Z"/></g>
<g><path style="opacity:0.943" fill="#e5e6e5" d="M 61.5,121.5 C 57.6979,123.222 53.6979,124.722 49.5,126C 43.4272,131.326 42.9272,137.159 48,143.5C 48.49,144.793 48.6567,146.127 48.5,147.5C 42.1205,143.612 39.7872,137.946 41.5,130.5C 42.0472,128.482 43.0472,126.649 44.5,125C 42.7125,123.912 40.7125,123.412 38.5,123.5C 30.8439,124.148 23.1772,124.648 15.5,125C 14.5939,126.699 14.2606,128.533 14.5,130.5C 10.8539,129.538 9.68719,127.205 11,123.5C 11.5,123 12,122.5 12.5,122C 28.8271,120.333 45.1605,120.167 61.5,121.5 Z"/></g>
<g><path style="opacity:0.831" fill="#d0d2d0" d="M 41.5,130.5 C 32.5,130.5 23.5,130.5 14.5,130.5C 14.2606,128.533 14.5939,126.699 15.5,125C 23.1772,124.648 30.8439,124.148 38.5,123.5C 40.7125,123.412 42.7125,123.912 44.5,125C 43.0472,126.649 42.0472,128.482 41.5,130.5 Z"/></g>
<g><path style="opacity:0.919" fill="#d2d3d1" d="M 105.5,123.5 C 113.903,123.13 122.236,123.63 130.5,125C 133.308,125.598 135.808,126.765 138,128.5C 139.489,132.833 137.989,135.167 133.5,135.5C 128.011,133.603 122.344,132.603 116.5,132.5C 109.506,133.446 102.506,133.946 95.5,134C 92.7348,131.034 93.0682,128.367 96.5,126C 99.678,125.34 102.678,124.507 105.5,123.5 Z"/></g>
<g><path style="opacity:1" fill="#c8cac8" d="M 61.5,121.5 C 70.8253,123.746 79.3253,127.746 87,133.5C 88.1667,139 86,141.167 80.5,140C 77.4151,138.04 74.2485,136.207 71,134.5C 68.1433,147.009 60.6433,151.342 48.5,147.5C 48.6567,146.127 48.49,144.793 48,143.5C 42.9272,137.159 43.4272,131.326 49.5,126C 53.6979,124.722 57.6979,123.222 61.5,121.5 Z M 53.5,130.5 C 57.2399,129.68 59.5733,131.013 60.5,134.5C 59.8074,139.151 57.1407,140.651 52.5,139C 49.6655,135.695 49.9988,132.862 53.5,130.5 Z"/></g>
</svg>
